<?xml version="1.0" encoding="utf-8"?>
<!-- Generator: Adobe Illustrator 22.0.1, SVG Export Plug-In . SVG Version: 6.00 Build 0)  -->
<svg version="1.1" id="Layer_1" xmlns="http://www.w3.org/2000/svg" xmlns:xlink="http://www.w3.org/1999/xlink" x="0px" y="0px" height="75px" width="75px" fill="#FFFFFF"
	 viewBox="0 0 75 75" style="enable-background:new 0 0 75 75;" xml:space="preserve">
<path d="M5.5,28.5c0,0.1,0.1,0.1,0.2,0.2c4.2,2.3,8.4,4.6,12.5,7c4.1,2.4,8.8,4.6,12.3,7.9c0.4,0.4,1-0.1,0.8-0.5
	c0-0.1,0.1-0.1,0.1-0.3c0-2.1,0-4.2,0-6.2c8,0.9,16.1,2.8,22.9,7.3c6.4,4.2,11.5,10.1,14.7,17c0.1,0.3,0.4,0.3,0.6,0.2
	c0.1,0,0.2-0.1,0.3-0.2c0.4-0.1,0.8-0.4,1.2-0.6c0.7-0.3,1.4-0.7,2-1.2c0.3-0.1,0.5-0.3,0.4-0.6c-2.1-9.2-7.2-17.6-14.5-23.7
	c-3.8-3.2-8.1-5.6-12.7-7.5c-2.6-1-5.3-1.9-8-2.6c-1.3-0.3-2.6-0.7-3.9-0.9c-0.3-0.1-2-0.3-2.9-0.5c0.2-2.2,0.4-4.4,0.8-6.5
	c0-0.1,0-0.3-0.1-0.4c0-0.3-0.2-0.7-0.6-0.6c-4.3,1-8.5,3.6-12.5,5.4c-4.6,2.1-9.3,4.3-13.9,6.4C5,27.8,5.1,28.3,5.5,28.5z"/>
</svg>
