<?xml version="1.0" encoding="utf-8"?>
<!-- Generator: Adobe Illustrator 22.0.1, SVG Export Plug-In . SVG Version: 6.00 Build 0)  -->
<svg version="1.1" id="Layer_1" xmlns="http://www.w3.org/2000/svg" xmlns:xlink="http://www.w3.org/1999/xlink" x="0px" y="0px"
	height="75px" width="75px" fill="#FFDEA1"
	 viewBox="0 0 75 75" style="enable-background:new 0 0 75 75;" xml:space="preserve">
<style type="text/css">
	.st0{fill:#000000;}
</style>
<path id="middle" d="M5.5,28.5c0,0.1,0.1,0.1,0.2,0.2c4.2,2.3,8.4,4.6,12.5,7s8.8,4.6,12.3,7.9c0.4,0.4,1-0.1,0.8-0.5
	c0-0.1,0.1-0.1,0.1-0.3c0-2.1,0-4.2,0-6.2c8,0.9,16.1,2.8,22.9,7.3c6.4,4.2,11.5,10.1,14.7,17c0.1,0.3,0.4,0.3,0.6,0.2
	c0.1,0,0.2-0.1,0.3-0.2c0.4-0.1,0.8-0.4,1.2-0.6c0.7-0.3,1.4-0.7,2-1.2c0.3-0.1,0.5-0.3,0.4-0.6c-2.1-9.2-7.2-17.6-14.5-23.7
	c-3.8-3.2-8.1-5.6-12.7-7.5c-2.6-1-5.3-1.9-8-2.6c-1.3-0.3-2.6-0.7-3.9-0.9c-0.3-0.1-2-0.3-2.9-0.5c0.2-2.2,0.4-4.4,0.8-6.5
	c0-0.1,0-0.3-0.1-0.4c0-0.3-0.2-0.7-0.6-0.6c-4.3,1-8.5,3.6-12.5,5.4c-4.6,2.1-9.3,4.3-13.9,6.4C5,27.8,5.1,28.3,5.5,28.5z"/>
<path id="outline" class="st0" d="M72.1,51.5c-2-5.6-5.1-11-9.2-15.3c-4.3-4.4-10.3-7.8-15.9-10.1c-3-1.2-6.1-1.9-9.3-2.5
	c-1.4-0.3-4-0.2-4.9-1.3c-1.3-1.5-0.1-4.8,0.4-6.6c0.2-0.7-0.5-1.5-1.2-1.2c-4.9,1.9-9.7,3.9-14.5,5.9c-2.3,1-4.6,1.9-6.8,3
	c-1.7,0.9-3.2,2.3-4.8,3.2c-0.3-0.1-0.7-0.1-1,0.2c0,0-0.1,0.1-0.1,0.1c-0.3,0.3-0.4,0.8-0.2,1.2c0,0.1,0.1,0.1,0.1,0.2
	c0,0,0.1,0.1,0.1,0.1c0,0.3,0.1,0.7,0.4,0.9c3.9,2.8,7.9,5.4,12.2,7.5c4.7,2.4,9.5,4.3,13.5,7.8c0.6,0.5,1.7,0.2,1.7-0.7
	c-0.1-2-1.2-5.9,1.3-6.8c0.8-0.3,4.8,1.1,5.7,1.3c4.1,1,7.7,2.4,11.4,4.7c7.3,4.6,13.9,10.4,17.2,18.5c0.3,0.7,0.8,0.9,1.5,0.6
	c1.2-0.5,3.9-1.6,4.3-3.1C74.5,57.4,72.6,53.2,72.1,51.5z M69.6,60.2c-3.2-7.1-8.6-12.5-15-16.9c-3.3-2.3-6.8-4.4-10.7-5.6
	c-3.6-1.1-9-3.1-12.7-2.6c-0.3,0-0.6,0.4-0.7,0.7c-0.4,1.9-0.2,4.1-0.1,6.1C23.3,36.4,14.4,33.4,7,28.3c1.1-0.7,2.1-1.7,3.2-2.4
	c2.1-1.2,4.3-2.1,6.5-3.1c4.7-2,9.3-3.9,14.1-5.8c-0.4,2.1-0.5,4.1-0.3,6.4c0,0.4,0.3,0.9,0.7,1c10.1,1.9,20,4.4,28.1,11.2
	c3.6,3,6.5,7,8.6,11.2c1.3,2.4,2.3,5,3,7.7C71.6,57.1,71.8,58.9,69.6,60.2z"/>
</svg>
