<?xml version="1.0" encoding="utf-8"?>
<!-- Generator: Adobe Illustrator 22.0.1, SVG Export Plug-In . SVG Version: 6.00 Build 0)  -->
<svg version="1.1" id="Layer_1" xmlns="http://www.w3.org/2000/svg" xmlns:xlink="http://www.w3.org/1999/xlink" x="0px" y="0px" height="75px" width="75px" fill="#F7F1E6"
	 viewBox="0 0 75 75" style="enable-background:new 0 0 75 75;" xml:space="preserve">
<path d="M73.3,27.6c-4.6-2.1-9.3-4.3-13.9-6.4c-4-1.8-8.2-4.5-12.5-5.4c-0.4-0.1-0.7,0.3-0.6,0.6c-0.1,0.1-0.1,0.2-0.1,0.4
	c0.4,2.1,0.7,4.3,0.8,6.5c-0.9,0.2-2.6,0.4-2.9,0.5c-1.3,0.3-2.6,0.6-3.9,0.9c-2.7,0.7-5.4,1.6-8,2.6c-4.6,1.8-8.9,4.3-12.7,7.5
	C12.3,40.9,7.3,49.3,5.1,58.5c-0.1,0.3,0.2,0.6,0.4,0.6c0.6,0.5,1.2,0.9,2,1.2c0.4,0.2,0.8,0.5,1.2,0.6C8.8,61,8.9,61,9,61.1
	c0.2,0.1,0.5,0.1,0.6-0.2c3.2-6.9,8.3-12.9,14.7-17c6.8-4.4,14.9-6.3,22.9-7.3c0,2.1,0,4.2,0,6.2c0,0.1,0,0.2,0.1,0.3
	c-0.1,0.4,0.4,0.9,0.8,0.5c3.5-3.3,8.2-5.5,12.3-7.9c4.1-2.4,8.3-4.7,12.5-7c0.1,0,0.1-0.1,0.2-0.2C73.6,28.3,73.8,27.8,73.3,27.6z"
	/>
</svg>
