<?xml version="1.0" encoding="utf-8"?>
<!-- Generator: Adobe Illustrator 22.0.1, SVG Export Plug-In . SVG Version: 6.00 Build 0)  -->
<svg version="1.1" id="Layer_1" xmlns="http://www.w3.org/2000/svg" xmlns:xlink="http://www.w3.org/1999/xlink" x="0px" y="0px"
	 height="75px" width="75px" fill="#FFDEA1" viewBox="0 0 75 75" style="enable-background:new 0 0 75 75;" xml:space="preserve">
<style type="text/css">
	.st0{fill:#000000;}
</style>
<path id="middle" d="M71.3,27.3c-4.6-2.1-9.3-4.3-13.9-6.4c-4-1.8-8.2-4.5-12.5-5.4c-0.4-0.1-0.7,0.3-0.6,0.6
	c-0.1,0.1-0.1,0.2-0.1,0.4c0.4,2.1,0.7,4.3,0.8,6.5c-0.9,0.2-2.6,0.4-2.9,0.5c-1.3,0.3-2.6,0.6-3.9,0.9c-2.7,0.7-5.4,1.6-8,2.6
	c-4.6,1.8-8.9,4.3-12.7,7.5C10.3,40.6,5.3,49,3.1,58.2c-0.1,0.3,0.2,0.6,0.4,0.6c0.6,0.5,1.2,0.9,2,1.2c0.4,0.2,0.8,0.5,1.2,0.6
	c0.1,0.1,0.2,0.1,0.3,0.2c0.2,0.1,0.5,0.1,0.6-0.2c3.2-6.9,8.3-12.9,14.7-17c6.8-4.4,14.9-6.3,22.9-7.3c0,2.1,0,4.2,0,6.2
	c0,0.1,0,0.2,0.1,0.3c-0.1,0.4,0.4,0.9,0.8,0.5c3.5-3.3,8.2-5.5,12.3-7.9s8.3-4.7,12.5-7c0.1,0,0.1-0.1,0.2-0.2
	C71.6,28,71.8,27.5,71.3,27.3z"/>
<path id="outline" class="st0" d="M73.2,27.2c0.1-0.4-0.1-0.7-0.5-0.9c-4.7-2-9.2-4.1-13.6-6.6c-4.2-2.3-9.1-3.5-13.7-5
	c-0.4-0.1-0.7,0-0.9,0.2c-0.5,0-1,0.3-1,1c0.2,2.1,0.3,4.2,0.5,6.3c-10.4,2-19.7,4.1-27.7,11.6C9.1,40.6,5.1,48.5,2.2,57.9
	C2.2,58,2.1,58.1,2,58.2C2,58.3,2,58.4,2,58.5C1.8,59,2,59.3,2.4,59.5c0,0,0,0,0.1,0c0,0,0,0,0,0c0,0,0,0,0.1,0.1
	c1.2,0.9,2.5,1.7,3.9,2.5c0.4,0.3,0.9,0.1,1.2-0.1c0.2,0,0.5-0.1,0.7-0.3c4.6-5.2,7.6-11.1,13-15.8c3.4-2.9,6.9-5,11.1-6.4
	c3.4-1.2,8.5-3.2,12.1-2.7c-0.1,1.3-0.1,2.6-0.1,3.8c0,1.1-0.2,2.4,0.2,3.4c0.2,0.4,0.8,0.6,1.1,0.5l0,0c0.3,0.1,0.6,0.1,0.9-0.2
	c3.7-3.3,8.5-5.5,12.7-8c4.5-2.6,9.1-5.1,13.7-7.6C73.8,28.4,73.7,27.6,73.2,27.2z M56.7,35.6c-3.5,2-7.2,3.9-10.4,6.4
	c0-0.1,0-0.2,0-0.2c0-0.7,0-1.3,0-2c0-1.2,0.1-2.4,0.2-3.6c0-0.3-0.1-0.6-0.3-0.7c-0.2-0.4-0.6-0.6-0.9-0.6c0,0,0,0-0.1,0
	c-0.1,0-0.2,0-0.2,0.1c-3-0.5-6.5,0.7-9.2,1.4c-4.1,1.1-8.1,2.5-11.7,4.8c-3.3,2.1-6.3,4.9-9,7.8c-3.2,3.4-5.2,7.7-8.2,11.2
	C6,59.6,5.1,59,4.2,58.4c2.8-9,6.6-16.6,13.6-23.2c7.9-7.4,17.2-9.2,27.4-11.2c0.6-0.1,0.8-0.6,0.7-1.1c0.1-0.2,0.2-0.4,0.2-0.6
	c-0.1-1.8-0.3-3.6-0.4-5.4c4.8,1.6,9.5,3,13.9,5.5c3.7,2,7.5,3.6,11.3,5.3C66.2,30.3,61.4,32.9,56.7,35.6z"/>
</svg>
