<?xml version="1.0" encoding="utf-8"?>
<!-- Generator: Adobe Illustrator 22.0.1, SVG Export Plug-In . SVG Version: 6.00 Build 0)  -->
<svg version="1.1" id="Layer_1" xmlns="http://www.w3.org/2000/svg" xmlns:xlink="http://www.w3.org/1999/xlink" x="0px" y="0px" height="36px" width="46px"
	 viewBox="0 0 48 36" style="enable-background:new 0 0 48 36;" xml:space="preserve">
<style type="text/css">
	.st0{font-family:'PlantagenetCherokee';}
	.st1{font-size:12px;}
	.st2{font-size:10.9146px;}
	.st3{fill:none;stroke:#000000;stroke-miterlimit:10;}
</style>
<g>
	<path d="M27,2c2.2,0,4,1.8,4,4v3c0,2.2-1.8,4-4,4H6c-2.2,0-4-1.8-4-4V6c0-2.2,1.8-4,4-4H27 M27,1H6C3.2,1,1,3.2,1,6v3
		c0,2.8,2.2,5,5,5h21c2.7,0,5-2.2,5-5V6C32,3.2,29.8,1,27,1L27,1z"/>
</g>
<text transform="matrix(1 0 0 1 2.3652 11.8979)" class="st0 st1">ᏣᎳᎩ</text>
<g>
	<g>
		<path d="M35,14c2.2,0,4,1.8,4,4v5c0,2.2-1.8,4-4,4H19c-2.2,0-4-1.8-4-4v-5c0-2.2,1.8-4,4-4H35 M35,13H19c-2.7,0-5,2.2-5,5v5
			c0,2.7,2.2,5,5,5h16c2.8,0,5-2.2,5-5v-5C40,15.2,37.8,13,35,13L35,13z"/>
	</g>
	<text transform="matrix(0.9705 0 0 1 17.2822 23.1904)" class="st0 st2">Eng.</text>
</g>
<g>
	<g>
		<path class="st3" d="M9.3,21.6c-4.7-1.6-9.1-7.6-6.8-9.1"/>
		<g>
			<polygon points="7.4,18.7 8.5,21.3 7.3,23.9 13.5,21.5 			"/>
		</g>
	</g>
</g>
<path class="st3" d="M7.7,25.5"/>
<g>
	<g>
		<path class="st3" d="M36.6,6.5c2.3,1.8,4.1,5.2,1.9,8"/>
		<g>
			<polygon points="37.6,9.8 37.3,7 39.1,4.9 32.5,5.5 			"/>
		</g>
	</g>
</g>
</svg>
