<?xml version="1.0" encoding="utf-8"?>
<!-- Generator: Adobe Illustrator 22.0.1, SVG Export Plug-In . SVG Version: 6.00 Build 0)  -->
<svg version="1.1" id="Layer_1" xmlns="http://www.w3.org/2000/svg" xmlns:xlink="http://www.w3.org/1999/xlink" x="0px" y="0px"
	 viewBox="0 0 1024 728" style="enable-background:new 0 0 1024 728;" preserveAspectRatio="xMidYMid slice" xml:space="preserve">
<style type="text/css">
	.st0{fill:#B2C9E8;}
	.st1{fill:#4A7436;stroke:#006837;stroke-miterlimit:10;}
	.st2{fill:#668E44;}
	.st3{fill:#C69C6D;}
	.st4{fill:#42210B;}
	.st5{fill:#C69C6D;stroke:#A67C52;stroke-miterlimit:10;}
	.st6{fill:#4A2090;}
	.st7{fill:#7F47DD;}
	.st8{fill:#00FF00;}
	.st9{fill:#00FFFF;}
	.st10{fill:#8DC63F;}
	.st11{fill:#7C993D;}
	.st12{fill:#DB4433;}
	.st13{fill:#A7A9AC;}
	.st14{opacity:0.6;fill:#F2F2F2;}
	.st15{opacity:0.5;fill:#F2F2F2;}
	.st16{fill:#29ABE2;}
	.st17{fill:#5F7835;}
	.st18{fill:#493928;}
	.st19{fill:#708E3B;}
	.st20{fill:#BFD7F0;}
</style>
<rect x="1.2" class="st0" width="1023.6" height="232.5"/>
<rect y="158" class="st1" width="200" height="77"/>
<rect y="223" class="st1" width="1026.1" height="508"/>
<g>
	<path class="st2" d="M1029.1,339.1c1-1.5,8.3-9.3,0-9.7c-0.9,0.9-1.9,1.5-2.9,2v6.4C1027.2,338.1,1028.4,338.5,1029.1,339.1z"/>
	<path class="st2" d="M44.9,443.1c1.4,0,2.7-0.1,3.9-0.4C47.9,442.7,46.7,442.7,44.9,443.1z"/>
	<path class="st2" d="M878.5,422.1c0.1,0.6,0.3,1.1,0.5,1.8C878.9,423.1,878.8,422.5,878.5,422.1z"/>
	<path class="st2" d="M1032.5,445.6c-3.2,1.9-5.5,3.3-7.2,4.6l-0.1,10.1C1027.4,455.5,1032.8,447.6,1032.5,445.6z"/>
	<path class="st2" d="M1019.1,334.3c-7.5,2.4,5.7,12.1-10.1,12.1c-0.3-3.4-0.6-6.9,3.3-7.3c-2.2-2.4-7.6-2.5-6.6-7.3
		c6.5,0.9,14.3,2.9,20.4-0.4l1-126c0,0-48.1,12.6-48,15c-14.7-5.1-14.3-6.9-30.1-12.1c-3.6,6.1-13.7,5.2-23.3,2.4
		c-15.5-2-3.5,3.8-10.1,4.8c0.6-5.2-11.9-1.1-16.7-2.4c-34.9-7-76.5-9-110.1-17c-14.9,3.4-41.4-5.4-60-7.3
		c-28.7-4.3-76.4-13.3-123.4-12.1c-2-0.1-3.9-0.4-3.3-2.4c-10.9-2.3-30.7,1.4-50.1,0c-4.3-3.3-14.5-2.4-23.3-2.4
		c0-2.4,2.7-2.9,3.3-4.8c-12.6,1.9-16-2.9-26.7-2.4c-3.9,12.2-22.7-1.4-36.7,2.4h-6.4v-4.8c-5-0.1-8,1.1-10.1,2.4v-4.8
		c-4-7.3-13.5,1.3-13.5,4.8c-29.9-9.6-71.2-1.8-100.2-7.3c-32.3,3.3-35.8-8.9-46.7-12.1c-5.9,5-12.4,0.6-6.7,9.7
		c-24.3,0.8-40.8-4.3-66.7-2.4c-5.6,0.9-6.3-1.9-6.6-4.8c-3.2,0.1-2.6,2.9-3.3,4.8c-10.5-2.7-26.5-1.7-43.5-4.8
		C125.8,148.6,52.3,144.7-2,143v29.4c0,3.4,1.3,7.5,4.9,7.5c2.4,0,3.9-1.8,4.6-4c2.8,0,4.3-0.5,0.7-1.5c3.7-6.4,12.9,3.2,16.6,4.8
		c42.7-5.1-13.8,5.4-26.8,2.4v113.8c10.1,2.2,11.7,3.1,16.8-2.4c1,10.2,19.7,3.4,17.2,0.4c4.8,3.1,35.4-1.5,13,6.9
		c16.7,0,49.5,0.5,46.7-4.8c61.4-2.2-12.9,22.6-16.7,9.7c-17.7,4.7-26.1,1.3-40.2,7.3c-4.6-11.1-18.7-3.6-36.8-7.3v41.2
		c7-0.5,14.3,10.3,16.7,4.8C25,360.9,3,354.9-2,358.5v12.1c7,0.6,0.9,10.7,10.2,9.7c5.3-9.3,5.3-2.8,0.1-12.1
		c18.1,4.7,60.1,7.4,60.1-12.1c-4.7,10.5-12,4.1-23.3,9.7c-34.2-0.1,2.9-16.7-6.6-4.8c11.5,3.3,18.1-15.2,36.7-14.5
		c-10.3,7.6,12.4,4.8,13.4,0c-5.7-1-8.5,3.6-10.1,0c19.1,3.2,16-24.3,16.7-12.1c29.9-15.5,62.3-24.6,90.1-14.5
		c-3.9,0.4-9.4-0.4-10.1,2.4c8.5,4.2,11.7-2.8,16.7,2.4c-12.9,1.3,2.6,9.3-6.6,14.5c13.9,1.1,5.2-14,16.7-14.5
		c7.7-0.8,3.7,7,10.1,7.3c9.6-2.4,30.3-7.6,43.4-14.5c4.6,5.5-8.6,9,0,9.7c4.4-6.4,14.6-4.7,13.4-9.7c6.6,0,4.2,6.6,13.4,4.8
		c0.4-8.5,6.1,0.3,10.1-7.3c8.9,7.4,17.7-0.1,26.7,7.3c-12.5,0.3-0.2,9.4-6.6,9.7c-3.3-4.2-7.5,3.6-3.2,6.4
		c-13-2.9-23.5,3.3-29.9-6.4c-4.8,6.2-26.4,13.3-36.5,7.3v-2.4c-6,6.6-35.2-7.4-30.3,0c2.6,0.5,6.4,0.1,6.5,2.4
		c-16-0.3-14,8.2-16.8,0c-3,7.1-12.3,0.8-13.4,4.8c3.7,0.5,5.2,2.7,6.6,4.8c-6.5-0.8-6.6,3.3-10.1,4.8c-4.6-9.4-9.4,2.5-13.4-2.4
		c3.9-3.6,8.3-6.9,13.4-9.7c-9.7-2,4.3-6.1,0-12.1c-10.5-1.1-13.1,5.2-20,0c-2.6,10.2-8.4,10.8-16.7,12.1c10.9,6.1,15.2,10.1,16.7,0
		c12.7,17.8-13.5,16.4-30.1,2.4c-7.3,3.4,4.2,5.9-3.3,7.3c-3.2-7-11.1-1.5-13.4-4.8c0.5-2.8-0.6-6.9,3.3-7.3c8-1,7.2,4.5,16.7,2.4
		c1.4-5.9-6.1-5.2-3.3-12.1c-4,12.9-25.9-4.1-36.7,9.7c6.6,8,14.3-6,16.7,0c-1.8,9.7-1.8,7.3,0,16.9c-4.7-0.9-5.6-2.9-10.1,0
		c1-1.5,8.3-9.3,0-9.7c0.8,7-6.2,8.4-10.1,12.1c5.6,3.8,15-2.9,20,4.8c-16.3,3.1-21.6-4.6-36.7,4.8c-7.3-3.4,4.2-5.9-3.3-7.3
		c-3.3,3.2-5.5,7.3-10.1,9.7c-0.2-1.5-0.5-2.8-3.3-2.4c4.7,9.2,21.3-0.3,6.6,12.1c7.2,0.3,21.6-6.6,23.3-2.4
		c-1.9,2.2-10.1,10.6-3.3,4.8c9.4-0.4,4.1-11.5,16.7-9.7c8.4,2-8.4,15.5,0,9.7c6.7-7.5,13.2-1.3,26.7-4.8
		c-1.9,2.2-10.1,10.6-3.3,4.8c9.2,1,3.1-9,10.1-9.7c5,8.5,21.5-5.2,26.7-2.4c-1.7-0.8-5.1-7.5,0-9.7c0.5,4.5,2.2,8,6.6,9.7
		c16.4-10.5,45.4,6.4,63.4-7.5c-1.9,5.1-7,8-10.1,11.9h6.6c0,1.3,2.7,2.9,3.3,0.3c-6-0.8,3.4-10.1,6.6-12c1.4,4.1,4.3-0.5,10.1,0
		c-4.3,0.4-4.3,14.8,0,7.3c0.4-2.9,1-5.7,6.6-4.8c-8.5,9.7,2.2,2.7,6.6,7.3c-8-1.5-12.5,11.6-6.6,12.1c7.3-6.8,14-14,23.3-19.4
		c-1.3,3.4-4,4.1,0,7.3c-14.2,0.3-9.4,17.5-3.3,12.1c2.1-15.5,30.7-9.3,43.3-14.5c1.3,4.2-4.9,6.2,0,7.3c0.9-3.8,7.3-1.7,10.1,0
		c-0.4-6.1-6.3-7.5,3.3-9.7c9.6,11-20.6,20.4-16.7,26.6c0.7-2.9,3.7-1.5,6.6,0c8.4-16.6,21.1-19.5,33.4-19.4
		c-4.6,4.8-16.8,16.7-13.4,19.4c0.8-4.2,5.7-5.5,13.4-4.8c-7.4,6.5,13.3,7.4,13.4,9.7c-12.6-1.9-11.5,8-26.7,9.7
		c0.8-3.4,5.5-4.1,6.6-7.3c-10.7,2-10.4-3.8-16.7-4.8c-20.6,18-46.1,6.9-46.7,26.6c-5.9-7.4-10.4,6.6-13.4,0c4-0.5,2-2.7,0-4.8
		c6.4-1.9,23.2-8.8,16.7-12.1c-2.6,5.4-11.7,6.1-16.7,9.7c-1.8-3.4,13-5.9,3.3-7.3c-3.3,4-8.9,5.6-13.4,2.4
		c-4.1,7.8,10.8,1.9,6.6,9.7c-7.7-4.8-8.9-4.8-16.7,0c2.8-7.8-5.2-7.5-6.6-12.1c6.8,0.8,6.5,6.5,13.4,7.1c1.8-3.6-3.9-12.2,3.3-12.2
		h3.3c-23.2-1.3-32,9.8-53.4,5c4.3-0.4,4.3-14.8,0-7.3c2.3,8-6.9,4-10.1,2.4c-8.1,3.2,6,7.3-3.3,9.7c-2.8-12.4-16.4,2.4-23.3,2.4
		c0.8-3.7,12.9-11.1,3.3-14.3c-8.9,4.5-21.3,2-26.7,14.8h-6.6c-0.3-2.5,4.8-4,0-5.1c-2.9,4.2-14.8,6.6-6.6-0.1
		c-11.9-3.8-2,8.2-10.1,7.3c-0.9-3.4-7.3-2.8-10.1-4.8c-2.1,13.9-33.3,4-43.4-2.4c5.5,8.7-13,7-18.5,13.5c0.9-5.7-9.7-5.9-18.2-1.4
		c-2.9,6.4,8.1,14.7,10.1,9.7c-8.6-4.7,9.5-0.8,13.4,0c-2.8-10.2,15-5.4,20-9.7c-1.3,3.4-4,4.1,0,7.3c-18,0.4-25.9,9.9-36.1,11.7
		c5.2,0.8-1.6,8.7-3.9,10.1c-3.7-5.4-13.2-6.5-16.7-12.1c2.8,7.8-2.9,9.2-6.6,12.1c3.8,0.4,9.1-0.4,9.9,2.2c3.5-1.7,8-3.8,10.1-4.6
		c-4.3,3.2-2,7.3,3.3,9.7c5.1-6.8,18.5-7.5,23.3-14.5c-5-0.4-12.3,0.9-13.4-2.4c18.1,1.8,14.3-12.2,33.4-9.7c-0.9-7,0.8-8.3,6.6-4.8
		c2.9-7.8-8.6-5-10.1-9.7c17,1.4,12.2,7.6,16.7,14.5c3.1-2.8,9.7-15.2,16.7-7.3c-12.5,7.5-19,9.9-23.3,19.4
		c1.8-13.4-12.7-2.5-16.1-2.3c4.8,1.1-2.1,2.5-3.9,4.7c9.7,0.6,11.6-4.6,16.7-7.3c2.4,6.6-6.6,4.8-6.6,9.7c2.6,0.5,6.5,0.1,6.6,2.4
		c-20.5-5.2-35,2.4-46.7,14.5c9.8-4.8,22.7-4.5,16.7-9.7c13.4,2.9,24.2-6.2,26.6,2.3c5-4.7,10.2-9.3,16.7-14.4
		c13.3,0.8-3.7,8.4,10.1,7.3c-2.3-7.5-2.3-4.7,0-12.1c-11.3-0.6-0.6,9.7-10.1,0c3.3,0,4-1.9,6.6-2.4c13.3,6.6,18.2-10.1,33.4-9.7
		c0.7,1.9,0.1,4.7,3.3,4.8c0.7-1.9,0.1-4.8,3.3-4.8c0,2.4,2.7,2.9,3.3,4.8c-12.6,0.6-33.7,5.5-30.1,14.5c0.4-1.9,11.1-7.4,10.1-2.4
		c1.3,5.7-15.2-1.4-10.1,7.3c10.2,0.1,13-5.1,20-7.3c0.2,3.1,4.3,3.3,3.3,7.3c-4.6-6.5-13.1,4.7-6.6,4.8c0.7-2.9,3.7-1.5,6.6,0
		c-2.4-6.6,6.6-4.8,6.6-9.7c-13-11,2-6,13.4-12.1c-0.7,4.6,3.7,5.4,3.3,9.7c-11.2-4-1.3,5.1-6.6,14.5c18.6,2.7,22.6-10.7,30.1-2.4
		c1-17.6,10.7-25.4,10.1-33.9c4.6-0.1,7.3,1.1,10.1,2.4c-7.3-9,6.8-5.2,0-12.1c4.8,5.4,8.1-3.1,10.1,2.4
		c-10.1,4.1-10.9,32.1-23.3,19.4c4.8,8.4-3.7,11.5,3.3,17c3.2-5.7,9.4-9.3,13.4-14.5c-1.1,17,23.1,5.1,20.3,15.9
		c1.8-3.4,8.9,3.8,13.1,3.4c0.9-7.1-7.5-7.4-6.6-14.5c6.3,0.5,7.3-2.7,13.4-2.4c-7.3,3.4,4.2,5.9-3.3,7.3c-0.2-1.5-0.5-2.9-3.3-2.4
		c-1,6.4,6.9,6.2,13.4,7.3c-3.6-9.9,11.5-6.2,13.4-12.1c-1.3,9.8,9.1,11.1,13.4,17c3-5.1,5.2-10.7,10.1-14.5
		c-5-0.4-12.3,0.9-13.4-2.4c5.9-1.1-1.4-2.5-3.3-4.8c3.3,0,4-1.9,6.6-2.4c1.9,5,5.2,5.1,10.1,2.4c-1.3,3.4-4,4.1,0,7.3
		c8.7,2,18.3-7.3,23.3,0c1.6,4.7-11.5,12.4-3.3,7.3c13.1-8.3,24.1-18.1,40-24.2c0.9,11.1-14,10.8-16.7,19.4c5,0.8,5.9,3.2,13.4,7.3
		c-10.2-10.2,14.6-8.5,0-14.5c5.5,0,1.9-6.8,6.6-7.3c11.1-2.2,14.5,13.5,20,7.3c-4.8-5.2,5.4-20.1,20-19.4
		c-1.6,14.4-11.3,10.8-20,16.9c12.8,6.4,28.6-4.1,18.6-4.8c12.8-0.4,19.3-15.2,31.5-7.3c-9.1-0.3-6.7,4.1-13.4,0
		c1.1,12.1,8.9,4.2,16.7,2.4c-3.9,4.6-18.1,14.1-10.1,19.4c6.2-6.8,7.3-17.3,20-19.4c-12.3,3.4,0.9,15.8-3.3,9.7
		c0.6-6.9,14.2-1.9,16.7-12.1c6.2,2.4,27.2-1.4,16.7,12.1c10.7,0.3,1.6-8.9,16.7-9.7c-0.5,2.8-5.9,5.5,0,7.3c7-8.3,9.6-0.9,20,0
		c11.9-1,13.2-9.8,20-14.5c4.3,6-9.7,10.1,0,12.1c0-1.4,2.7-2.8,3.3,0c0.9,10.1-13,3.2-13.4,7.3c9,2.2-3.4,8.5-3.3,12.1
		c7.2-4.5,20.6-4.3,26.7-9.7c-4.8-4.5,3-13,3.3-17c3,7.3,5.2,8.8,10.1,9.7c3.2,9-3.7,14.1,6.6,14.5c-1.1-5.7-5.2-9-3.3-17
		c4.6,0.1,7.3-1.1,10.1-2.4c-4,4.3-0.9,14.3,3.3,9.7c-6.3-3.8,4.8-9.4-3.3-14.5c6.6,0,4.2,6.6,13.4,4.8c5.8-5-2.5-4.7,3.3-9.7
		c-5.9-1.4-13.9-1.3-16.7-4.8c9.3,1-8.3-9,3.3-9.7c0.7,1.9,0.1,4.7,3.3,4.8c0.7-1.9,0.1-4.7,3.3-4.8c5.5,10.6,16.7,23.6,0,31.5
		c22.8,0.4,18.4-19,36.7-21.8c4.6,5.5-8.6,9,0,9.7c4.8-7.1,7.4-2,20-4.8c-0.4,6.1-6.3,7.5,3.3,9.7c-0.2-11.9,12.2-4.7,20-4.8
		c-1-6.4,6.9-6.2,13.4-7.3c-0.1-7.4-1.9-15.9,10.1-14.5c-0.3,6.5,11.6-0.5,20,0c-1,3.3-4.7,4.6-3.3,9.7c8.2-0.4,16.2-0.4,16.7,4.8
		c-1.6,2.8-3.5,5.5-6.6,7.3c-0.7,2.7-3.7,3.8-6.6,4.8c2.4,6.6-6.6,4.8-6.6,9.7c8.3-3.2,10.5,9.6,13.4,2.4c-6.3-0.6,2.8-5.5-1.6-8.8
		c4.3,1.5,11.4-0.4,14.9-3.3c-10.5,0.1,0.2-5.6,0-9.7c0.7,1.9,2.8,2.7,6.6,2.3c13.3,15.8-11.8,28.9-20,53.1h6.6c2,0,3.9-0.1,3.3-2.2
		c-6.1-0.5,14.6-4.2,16.7-11.9h-6.6c-0.2-1.3-0.5-2.9-3.3-2.5c-1.3,4.2,4.9,6.1,0,7.3c-11.1-11.5,14.8-9,16.7-14.5
		c0.2,8.3-3.9,13.3-10.1,17c14.2,3.7,13.3-15.9,23.3-7.3c-1.8-0.5-17.6,5.4-10.1,9.7c0.5-5.4,8.4-5.2,16.7-4.8
		c4-9.9,14.1-28,33-19.5c1.6-4.3,3.6-9.2,7.1-14.4c-11.1-1.3-14.5,13.6-20,2.4c7.1,5.2,18.3-4.8,6.6-7.3c4.9-1.3,8.4-3.6,13.4-4.8
		c4.8,3.8,7,9.4,10.1,14.5c-4.6-6.5-13.1,4.6-6.6,4.8c3-3.7,12.3-1.3,13.4,0c-3.9,0.4-3.6,3.8-3.3,7.3c-4.8-2.7-8.1-2.7-10.1,2.4
		c11.1,4-10.4,18-3.3,24.2c-1.6-7.6,8.3-6.9,13.4-9.7c-1.6,9.9,8.3-0.1,13.4,0c-4.5,3.3-6.3,16.9,3.3,16.9c4.3-6-7.4-11.7,0-12.1
		c19.2,4.8,23.4-2,26.7,7.3c13.8-5.1,0.9-13.4,20-26.6c0,3.2,5.8,2.2,6.6,4.8c-2.7,4.6-22.5,9.3-10.1,16.9c0.7-2.9,3.7-1.5,6.6,0
		c1.1-20.1,20.3-16.6,26.7-29.1c0.6,3.6-1.2,8.9,3.3,9.7c8.1-3.2-6-7.3,3.3-9.7c-0.2,4.2,2.6,6.2,6.6,7.3c7.8-3.8,17-5,16.8-9.2
		c0.6,2.5,5.8,1.9,6.6,4.3c-1,10.8,4.6,17,10.1,17c-1.1,5.6-3.4,10.5-10.1,12.1c-3.8-7.6,5.2-5.9,6.6-9.7c-7.7,0.8-3.7-7-10.1-7.3
		c-0.4,15.3-3.6,10.7-10.1,17c7,2.8,9.6,0.9,20,4.8c-2.7-10.1,9.7-9,13.4-14.5c-0.2,4.2,2.6,6.2,6.6,7.3c1.4-4.1,15.7-10.8,6.6-14.5
		c-6.6,7.1-1.2,7.9-10.1,12.1c-2.8-11,5.6-13.6,13.4-16.9c-7.9-7.4-14.7-1.8-23.3,2.4c-5.5-9.8,19.9-9.4,10.1-14.4
		c-0.3,3.3-8.5,2.8-6.6-2.3h17.2v6.9c7-2.2,19.3,0.5,13.3-4.8c-0.2,1.5-0.5,2.8-3.4,2.4c-1.8-3.6,3.9-12.5-3.3-12.1
		c-1.4,3.1-4.3,5-10.1,4.8c-2.3-8.2,6.8-7.9,9.9-12.1c2.2,5.6,6,10.2,16.7,9.7c0.1-9.7,0.3-17.7,3.3-19.4c2.1,5.7,1,11.3,3.3,21.8
		c-6.8,1.4-13.9,4.6-6.6,9.7c-9.7,4.6-16.4,2.4-23.3,4.8c11.8,1.3,5.3,14,3.3,19.4c14.4,0.9,9-8.8,6.6-14.5
		c1.9-3.4,5.2-5.9,10.1-7.3c-2.4,9.7-2.4,9.7,0,19.4c-6.5-1.1-17.1,6.5-10.1,7.3c3.3-7.4,5.5-3.1,10.1,0c-0.6-10.2,5.1,0,10.1,0
		c6.3-16.4,2.7-19.1,9.4-24.5l0.9-112.4C1023.2,337.1,1019.7,336.7,1019.1,334.3z M8.3,346.4c-5.2-0.9,2.9-4.2-3.3-4.8
		c4.7-3.6,10.7-5.2-3.3-4.8c-1.4-6.6,12.5-2.3,13.4-7.3c6.1,11.3-4.1,7.5,16.7,4.8C23.5,342.6,13.9,340.4,8.3,346.4z M24.9,353.7
		c-3.4-1.5-3.4-5.6-10.1-4.8c11.6-1.8,12.9-3.6,26.7-7.3C42,349.8,26.9,347,24.9,353.7z M231.8,264.1c29,2.9,57.6-4.1,70.1-4.8
		c3.2,2,3.9,8.5-3.3,12.1c-13.2,0.4,1.1-3.7-6.6-7.3c-5,2.2,0.9,3.6-3.3,9.7c-3.9-4.6-8.3-5.6-13.4,0c-5.3-4.7-28.5-7.1-33.4,0
		C239.2,269.9,231.2,270.1,231.8,264.1z M171.7,184.2C146.1,196.5,133.1,184,171.7,184.2L171.7,184.2z M145,181.7
		c-7.6-1.8-17.1-2.2-23.3-4.8c3,6.2-16.5,4.1-26.7,7.3c-6.1-1.9,2-2.5,6.6-2.4c-1.9-3.4-5.2-5.9-10.1-7.3
		C102.5,172.3,140.8,171,145,181.7z M131.7,252c-2,5-5.1,9.2-16.7,7.3C113.8,251.8,125.8,254.1,131.7,252z M48.3,169.6
		c7.8,0.8,12.6,3.8,23.3,2.4c-1.5,5.2,4.7,4.6,10.1,4.8c8,3.7-30.4,1.3-20,0C62.7,170.5,42.9,179.2,48.3,169.6z M21.6,169.6
		c11.6-1.9,12.9,3.6,23.3,2.4C44.1,175.5,17.5,177.7,21.6,169.6z M81.6,288.3c-13.3-3.8-22.1-6.2-36.7-4.8c7.8-10.3,20.5-4,36.7-9.7
		c-1.7,8.9-5.7,6.1,6.6,4.8C92.5,286.4,77.5,280.4,81.6,288.3z M71.7,254.4c0.6-2.8,3.3-1.4,3.3,0
		C129.7,241.9,103.1,268.3,71.7,254.4z M115,288.3c-1,3.3-8.3,2-13.4,2.4c6.5-4.6,1-8.9,0-14.5c22.5-2,55.6,5.4,56.7-2.4
		c12.7,6.2-8.4,8.2-6.6,14.5C144,282,112.6,283.3,115,288.3z M138.4,307.7c-5.8-5.1-0.2-7,0-14.5c13.7,7,23.9,1.3,46.7,4.8
		C182.7,315.3,146.6,299.9,138.4,307.7z M218.4,283.4c-11.4-9.7-40.9,12.1-46.7-4.8c19.4,11,31.3-15.2,66.7-2.4
		C234,280.1,223.6,279.9,218.4,283.4z M255.1,305.5c11.5-5.1,11.7-5.7,0-7h-3.3c-11.1,6.4-0.3-6-7.6-7.4c12-0.4,44.4-10.8,47.6,4.6
		c9-2.9,15.6-4,20-4.7C315.4,310.2,277.2,308.4,255.1,305.5z M128.4,353.7c10.5-3.6,13.7-0.1,20,4.8
		C146.3,358.6,127,364.9,128.4,353.7z M201.7,356.1c-0.4-2.4,14.4-4.8,3.3-7.3c0.8-6.2,5.7,3.3,13.4,0
		C217,357.2,211.4,359,201.7,356.1z M278.5,355.8c-3.2,0.1-2.6,3.1-3.3,5c-10.2,3.1-17-8.3-20-2.4c-11.9-0.3,7.1-8-3.3-7.3
		c0.8-3.7,12.4,1.3,16.7-5c4.1,1,6.8,3.3,6.6,7.1h10.1C285,355.8,281.1,355.3,278.5,355.8z M121.7,437.9c-7.8-2,2.8-10.7,3.3-14.5
		h13.4C134.9,429.7,125.1,431.5,121.7,437.9z M178.4,452.8c-6.3-5.1-0.8-10.2,0-14.5c4.5,1.5,6.2,5.2,6.6,9.7
		C179.4,447.1,178.8,449.9,178.4,452.8z M175.1,438.3c-11.8-0.6,1.7-17-6.6-12.1c-14.4-7,26.2-3.8,6.6-2.4
		c-0.5,8.3,5.8,3.7,10.1,12.1C177.8,437.5,174.5,429.1,175.1,438.3z M255.1,433.4c-11.5-8.4-6.6,9.3-20-7.3
		c-9.8,2.2,7.7,3.6,3.3,9.7c-6.8-0.8-6.5-6.5-13.4-7.3c5.2-3.4,11.7-6.1,13.4-12.1c6.1,0.4,2,8.2,6.6,9.7c7.7-1.9,18.9-7.8,26.7-2.4
		C269.2,429.1,256.1,426.9,255.1,433.4z M902.3,317.3c3.9,0.4,5.9-0.5,6.6-2.4c8.4,4.3,8.2,15,16.7,19.4c-1.2,3.8-5.8-2.2-6.6,2.4
		c-0.5-6-5.5-9.9-20-7.3C897.6,323.6,905.1,324.1,902.3,317.3z M919,351.2c1.1,0.6,2.2,1.4,3.3,2.3
		C920.6,357.4,918.9,353.8,919,351.2z M905.6,329.5c10.7,14.4-26-3.2-20,12.1c-7.8-3.6-6.2-5.1-16.7-2.4c6.7-5.6-1.5-5.6-3.3,0
		c-3.6-0.6-2.2-4.8-6.6-4.8C867.7,322.7,897,332.3,905.6,329.5z M869,254.4c-3.7,9.7-25.3-2.4-36.7,4.8
		C832.7,249,857.9,256.8,869,254.4z M825.6,312.5c3.2-0.1,2.4-2.9,3.1-4.8c2.7,0.5,3.4,2.4,6.4,2.4v4.8c-6,0.4-11,1.5-13.2,4.8
		C815.7,322.3,824.9,304.7,825.6,312.5z M818.9,339.1c8.6-0.3,3.5-10.3,16.7-7.3c-6.6-5.6,0.8-2.7,3.3-7.3
		c-0.2,7.3,6.7,1.4,16.7-2.4c8.9,4.3,0,15.9-10.1,14.5c-3.8-8-15.1,2-26.7,4.8c2.2,2.4,7.6,2.5,6.6,7.3c-3-1.9-7.5-2.5-13.4-2.4
		c-2.9-8.5-0.4-6-3.3-14.5C812.4,334.2,815.7,336.6,818.9,339.1z M842.3,397.1c-4.5-1.7-6.2-5.2-6.6-9.7c-4.9,1.3-8.4,3.6-13.4,4.8
		c-6,6,4.6-11,16.7-7.3C837.6,390.9,845,390.4,842.3,397.1z M762.2,295.6c9-1.8-2.4,11.5,6.6,9.7c6.1-0.4,2-8.2,6.6-9.7
		c10.3-1.8,9.8,4.2,20,2.4c-7,7-27,9.2-30.1,12.1C765.3,307.7,757.4,300.3,762.2,295.6z M729.5,343.6c16.9-9.9,38.3,0.1,62.7-11.7
		c0.4,21-46.9,1-46.7,16.9C739,350.1,734.3,342.8,729.5,343.6z M742.2,363.4c-2.8-0.5-3.1,0.9-3.3,2.4c-2.6-6.2-16.6-4.1-16.7-12.1
		c8.1-1.7,12.2,11.7,16.7,4.8C742.1,358.5,741.4,361.4,742.2,363.4z M735.5,300.4c0.6-2-1.3-2.3-3.3-2.4c0.5-2.8,6-2,10.1-2.4
		c-0.6,7.6-6.2,11.6-16.7,12.1C724.9,302.3,728.3,299.9,735.5,300.4z M702.1,256.8c-3.3,7.3-20.1,4.7-30.1,7.3
		C674.1,255.8,691.6,258.8,702.1,256.8z M642.1,244.7c-1.7,6.6-27.4,1.8-33.4,2.4C613.4,241.5,632,246.2,642.1,244.7z M572.1,346.4
		c-0.8,3.4-9.9,0.9-10.1,4.8c-5.1-2.7-6.9-7.9-16.7-7.3c0-3.7,9.1-7.9,6.6,0C564.9,342.8,563.9,341.3,572.1,346.4z M548.7,358.5
		c-5.2-6.9-6.6-1.5-20-2.4c3.1-4.2,10.5-5.4,20-4.8c0.6-2-1.3-2.3-3.3-2.4c1.4-3.6,4.2,0.9,10.1,0
		C555.3,353.5,546.2,351.9,548.7,358.5z M532,339.1c3.2,0.1,2.6,2.9,3.3,4.8c3.8-0.8,12.8-11.5,0-9.7c3.5-8,10.2-0.1,20-4.8
		c-1.8,8.4-14.2,9-16.7,17c-10.3-1.7-6.4-1.7-16.7,0C522.4,341.8,533.1,344.6,532,339.1z M488.7,273.8c15.6-2.2-2.2,8,6.6,7.3
		c-5,5.2-8.1-1.8-16.7,2.4C477.7,277.1,491.6,281.5,488.7,273.8z M421.9,334.3c7.4,1.3,27.6,2.3,46.7,0c-2.1,5-16.9,0.6-13.4,9.7
		c-7.7-1.9-18.1-9.2-33.4,2.4c-4.5-0.8-2.8-6.1-3.3-9.7c-6.6,0-4.2,6.6-13.4,4.8c10.1,5,8.3,3.4,13.4,12.1
		c-12.6,5.9-19.7,2.3-26.7,9.7c-17.5-5.9,6.6-11.5,10.1-17c-1.4-3.6-4.2,0.9-10.1,0c-2-5.6,4-5.2,6-7.8
		C399.1,342.2,423.8,331.7,421.9,334.3z M361.9,365.8c-1.2-13.3,13.6-13.6,23.3-21.8C403.2,352.9,366.9,358,361.9,365.8z
		 M348.6,261.7c5.6-0.9,6.3,1.9,6.6,4.8c3.9,0.4,5.9-0.5,6.6-2.4c12.3,5.2-9.6,5.6-16.7,4.8C346.9,266.9,348.7,265,348.6,261.7z
		 M331.9,290.7c8.4,6.6,22.9-5.4,23.3,4.8c6.9-9.7,30.9-8.2,33.4-14.5c10.4,0.6,18.6,9.9,10.1,17c-6.6-5.9-14.3,4.1-16.7-4.8
		c1.6,5.5-17.5,5.4-26.7,9.7c-3.9-9.8-20.4,3.6-16.7-9.7c-3.1,1.8-5,4.5-6.6,7.3C321.8,298.7,335.1,295.2,331.9,290.7z M325.1,339.1
		c-3.8-0.9-8.4-4.2-3.3-4.8c0.5-1.8-0.9-2.2-2.6-2.4c5.6,0,20.5-9.6,29.2-4.8c0.1,3.6-19.8,3.4-3.3,4.8c-1.9,2.3-9.2,3.7-3.3,4.8
		C341.2,344,323.9,326,325.1,339.1z M351.9,360.9c-6.9-1.4-9.5-6-20-4.8c-1-4.2,13-8.5,10.1,0c7.4-2.7,9-9.6,16.7-12.1
		C363.4,352.8,360.2,352.4,351.9,360.9z M358.5,387.6c1.5-7,7-11.1,16.7-12.1c-0.5,2.8,0.7,4.3,3.3,4.8c-5.8,2.3-6.9-3.8-16.7,2.4
		C365.6,385.7,364.8,387.7,358.5,387.6z M378.6,404.4c-5.3-3.6,5.3-13.9-10.1-14.5c3.4-4,14.2-2.7,20-4.8
		c-4.8,7.5-15.7,10.5,3.3,12.1C386.6,399,386.9,404.9,378.6,404.4z M391.9,404.4c1.8-1.9,3.5-4,3.3-7.3c6.9-1,8.8,1.7,13.4,2.4
		C408.1,404.9,400.2,404.8,391.9,404.4z M405.2,385.1c-3.4-1.5-3.4-5.6-10.1-4.8c1.8-1.9,3.5-4,3.3-7.3c2.7,1.3,5.4,2.5,10.1,2.4
		C410,380.4,406.3,381.8,405.2,385.1z M485.3,423.8c-9.7-2,2-7.8,0-12.1c12.9,1.7,11.9,0,20,2.4
		C512.9,416.6,485.3,409.7,485.3,423.8z M558.7,375.5c6.6,4.6,9.1,10.7-6.6,9.7c0.5-2.8,6.1-2,10.1-2.4c-0.8-3.4-9.9-0.9-10.1-4.8
		c-4.9-1.5-5.3,9.3-1.3,9.8c-5.6,1.4-28,10.8-32.1-0.1c-9.7,2,4.3,6.1,0,12.1c-9.2-4.1-18.5-5.6-26.7-2.4
		c-10.6,2.7,9.6-7.3,10.1-12.1c-8.9-4.3-6.4,10.7-10.1,2.4c1.9,5.2-11.2,3.8-13.4,12.1c-19.1-7.3-21.9,3.1-33.4-9.7
		c0.5-2.8,6.1-2,10.1-2.4c-1.2-3.2-5.8-3.8-6.6-7.3c-5.2,3.4-15.6,3.2-20,7.3c-5.5,5,5.1-16.4-13.4-7.3c2.8-2.8,4.4-6.5,3.3-12.1
		c15.4-2.5,29.1-6.2,43.4-9.7c-5.7,2.3-6.7,8-13.4,9.7c5.8,6.8,8.7,2.3,20,2.4c-16.7-10.6,37.3-6.4,43.4-4.8
		c2.3,8.9-11.7,6-16.7,9.7c1.2,3.2,5.8,3.8,6.6,7.3c0.6-3.1,14.6-7.3,6.6-2.4c0.9,5.7,8.9-2.8,13.4-2.4c0.1-4.1-2.5-6.2-6.6-7.3
		c1.8-6.8,16.1-4.5,23.3-7.3c-1.8,1.9-3.5,4-3.3,7.3c4.5-2.4,6.6-6.5,10.1-9.7c5.8-1.4,19.6,2.9,20-2.4
		C567.9,359.3,570.5,373.3,558.7,375.5z M572.1,387.6c0.8-2.7,6.7-1.7,6.7-4.8c-1.4-3.6-3.9,0.9-9.9,0V373c6,0,4.2,6.6,13.3,4.8
		C583,384.1,580.8,388.2,572.1,387.6z M568.9,344c3-5.1,10.1-7.4,20.1-7.3v-4.8c-2-3.6-4.4,1-10.2,0c-1.6-7.6,16.5-0.9,13.3-9.7
		c11.1,6.8,7.5,2.5,16.7-4.8c24.8-1.5,46.9,1,63.4,0c10.8,4.8-12,5.6-10.1,12.1c-12.2-2.2-17.8,4.3-23.3,0c-7.2,3.6,3.6,6.9-6.6,9.7
		c0.2-4.2-5.1-6-20-4.8C620.5,342.4,580.6,351.2,568.9,344z M605.4,382.7c-3.8-0.5-1.8-2.4,0-2.4c-2.2-2.4-7.6-2.5-6.6-7.3
		c-3.8,3.6-4.4,10.1,3.3,12.1c-3.8,4.8-16.4-4.1-16.7-9.7c5.4,0.4,16-7.3,10.1-7.3c1.2-3.8,5.8,2.2,6.6-2.4c3.6,0.6,2.3,4.8,6.6,4.8
		C595.3,375.2,615.1,375.2,605.4,382.7z M645.4,368.2c-14.5,0.1-15.4-3.7-23.3,2.4c-0.3,1.3,20.3,1.3,20,0c7.1,1.5,3.1,14.9,0,17
		c-6,0.3-7-2.9-13.4-2.4c15.9-8-10.7-3.3-10.1,4.8c-10.7-4.5-7.5-17.1,3.3-21.8c-10.4-2.8-12.8-1.7-26.7-4.8
		c0.8-3.4,9.9-0.9,10.1-4.8c5.3,8,13.8,4.1,16.7-2.4c4.8,6.5,11.3-0.5,26.7,4.8C647,362.8,645.3,364.8,645.4,368.2z M692.2,377.9
		c-4.1-2.7-6.8-2.2-6.6,2.4c-10.3-1.7-6.4-1.7-16.7,0c-7.3-5.1,2.9-7.8-3.3-12.1c-8.5,6.2-12.4,10.5-13.4,17c-5,4,0.1-5.7-3.3-12.1
		c3.1-2.5,12.3-0.8,10.1-7.3c11.4,4.2,24.4,1.7,36.7,0c0.3-6.6-5.5-4.8,0-9.7c8-1-1.8,11.1,10.1,7.3c-7.4,1.9-8.9,8-20,7.3
		C687.7,373,693.2,373,692.2,377.9z M708.9,346.4c-20.7-4.3-37.6-7.1-50.1,2.4c-11.9-0.3,7.1-8-3.3-7.3c6.6-11.1,26.7,2.3,23.3-14.5
		c9.7,4,1.3,7.6,6.6,12.1c3.3-5.7,14.4-5.7,20-9.7c-0.6-2.8-3.3-1.4-3.3,0c-3.2-2.5-3.5-9.6-6.6-12.1c1-3.1,4.3,0.3,5.9-0.9
		c-3.4,7.8,6.9,2.2,10.8,13c2-0.8,12.9-6,13.4,0c6.8-7.5,17.1,0.1,20-12.1c-3.3,5.6-18.2,2.9-23.3,7.3c-6.9-1.4-7-3.8-3.3-7.3
		c-0.5-2.8-6.1-2-10.1-2.4c17.4-5.5,46.4,6.8,66.7,0c-0.4,2,0.2,3.3,1.5,4.1c-11.2-3.6-11.3,8.8-21.5,0.8
		c-7.6,3.3-9.8,10.7-16.7,14.5C726.4,325,720.4,343.9,708.9,346.4z M718.8,360.9c7.4,1,11.9,4.3,13.4,9.7
		C721,371.6,712.5,365.4,718.8,360.9z M782.2,426.2c1.4,3.6,4.2-0.9,10.1,0c-4.1,5.1-9.7,9-16.7,12.1c-8.4,5,7-3.3,3.3-9.7
		c-13.7,2.2-14.7,13.5-30.1,14.5c8.1-9.9,5.1-14.8,3.3-24.2c-9.3,4.2-3.1,6.4-3.3,14.5c-14.1-3.1-1.1-13.1-3.3-21.8
		c-7.7,5.7-17.8,10.5-20-2.4c16.2,10.3,5.9-3.6,33.4,0c-8.9,9.2-3.3,11.7,3.3,9.7c4.7,0.9,0.3,4.2-3.3,4.8c1,8.4,9-0.3,10.1,4.8
		c6.9-7.1,16.7-22.3,33.4-14.5C800.3,421.6,790.2,423.1,782.2,426.2z M762.2,416.5c2.1-10.8,11.5-4.1,23.3-9.7
		C780.8,417.1,773.2,414.3,762.2,416.5z M798.9,363.4c-6.8,2.3-11.9,6-13.4,12.1c-3.5-1.8-0.4-7.3-6.6-12.1
		c-2.5,3.8-10.6,3.6-10.1,9.7c-3-1.5-5.9-2.9-6.6,0c-0.9-3.1-18.4-9.9-10.1-4.8c-24.7-3.7,26.4-7.5,41-17.5c-1.3,4,5.5,11.2,8.9,5.4
		c-9.9-1.5,3.2-5.2,0-9.7c4.9,2.2,10.6,3.6,10.1,9.7c-5.7,0.5-8.6-4.1-10.1,0C815.4,363,788,361.4,798.9,363.4z M815.6,421.3
		c-14.1-2.9,10.1-9.7,0-9.7c5.6-3.2,19.6,0.9,16.7,7.3c4.8-6.6,8.4-2.8,16.7,0c10.4-2.2,8.9-12.9,23.3-12.1
		c-2.6,2.5-23.6,10.6-6.6,12.1c-4.2,12.2-15.6,19.4-36.7,19.4C822.4,430.8,821.1,421.7,815.6,421.3z M872.3,457.7
		c-5.1-15-16.2,5.7-13.4-9.7c-2.7,1.3-5.4,2.5-10.1,2.4c4.6,3.1,3.3,10.5,3.3,17c-10.2,0.3-14-16.4-20-4.8c-8.6-0.6,4.6-4.2,0-9.7
		c-7.4-1.3-4.7,4.6-10.1,4.8c-7.6,5.2,7.3-7.1,3.3-14.5c11,4,12.8-0.5,26.7,0c-0.8,3.4-9.9,0.9-10.1,4.8c0.4,1.7,23-0.9,23.3-7.3
		c5.3,2.5,3.5,16.1,10.1,4.8C881.9,450.5,870.8,451.7,872.3,457.7z M889,428.6c-9.3-3.8-14.2,4.1-13.4-7.3c1.6-0.3,2.4,0.1,2.8,0.6
		c-0.9-4.3,0.3-10.5,10.6-15.2C897.7,414.5,881,418.8,889,428.6z M882.3,363.4c-11.2-3.7,13.2-7.3-3.3-9.7
		c16.3,0,23.5-12.7,39.9-2.4c-7.2-0.4-10.5,2-9.8,7.3c-4.4-0.9-5.2-4.2-10.1-4.8C899.6,361.4,886.9,352.8,882.3,363.4z M899,452.8
		c-5.3-3.6-10.6-13.3,3.3-12.1C903.4,446.3,901.8,450,899,452.8z M935.7,438.5c-16.9-2-4.2-11.3-6.6-21.5h-6.6
		c-4.5,0-2.8,5.9-3.3,9.4c-12-8.5-18-1.8-26.7-7.4c9.8-3.3,0.4-8.9,6.6-17c5.4-1.8,5.4,11.3,0,9.7c1.2,3.2,5.8,3.8,6.6,7.3
		c10.5-5.7-0.2-14.1,10.1-17c-1.4-3.6-4.2,1-10.1,0c-2.8-2.8-4.4-6.5-3.3-12.1c5.9,4.5,8.4-1.9,20,0c-3.3,9.7-3.5,15.3,6.6,7.3
		c6.7,2-8,8.5-10.1,12.1c0.6,1.9,3.3,2.4,3.3,4.8c3.8-5.2,10.1-8.8,13.4-14.5c2.7,2.3,3.9,15.3,6.6,24.3
		C921.7,425.2,944.6,428.9,935.7,438.5z M942.3,397.1c-3.9-3.6-9.6-5.9-10.1-12.1C944,386.2,946.5,390.2,942.3,397.1z M932.4,327
		c-0.4-4.3,4.1-5.1,3.3-9.7c10.5,2.7,9.4,1.5,13.4-4.8c8.6,0.6-4.6,4.2,0,9.7C936.4,318.6,942.6,328.8,932.4,327z M959,327
		c-4.4-3.2-12.5-3.2-13.4,2.4c-6.1-7.5,14.6-6.6,16.7-12.1C974.6,321.2,954.6,320.9,959,327z M998.9,324.6c-3-1.5-5.8-2.9-6.6,0
		c0.6-4.8-12.2-7-16.8,0c-5-12.6,26.5-10.5,36.6-9.7v7.3C1007,321.5,999.1,317,998.9,324.6z"/>
	<path class="st2" d="M31.6,455.2c0-0.1,0-0.1-0.1-0.3C26.8,457.3,23.9,458.8,31.6,455.2z"/>
	<path class="st2" d="M238.8,454.2c-0.1,0.3-0.3,0.6-0.3,1C238.6,454.9,238.7,454.6,238.8,454.2z"/>
	<path class="st2" d="M782.2,448c8.9,7.9-9.1,7,0,12.1c0-2.4,5.8-3.1,6.6,0c0.3,2.7-4.8,3.8,0,4.8c7.9-4.8,9.8-11.3,12.8-19.2
		C794.8,447.5,787.2,451.9,782.2,448z"/>
	<path class="st2" d="M802.2,445.6c-0.1-0.1-0.3-0.1-0.4-0.1c0,0.1-0.1,0.3-0.1,0.4C801.9,445.7,802,445.7,802.2,445.6z"/>
	<path class="st2" d="M78.9,443.3c-0.2,0-0.4-0.1-0.6-0.1C78.4,443.3,78.6,443.4,78.9,443.3z"/>
	<path class="st2" d="M1025.1,464.2v-3.8C1024.2,462.5,1023.9,464,1025.1,464.2z"/>
	<path class="st2" d="M75,460.1c-5.4,5.7-7.4,14-10.1,21.8c9.6-8.5,16.3-15.3,23.1-21.8C79.3,460,81.5,464.2,75,460.1z"/>
	<path class="st2" d="M88.4,460.1V460c-0.1,0-0.1,0.1-0.2,0.1C88.2,460.1,88.3,460.1,88.4,460.1z"/>
</g>
<path class="st3" d="M457.5,440.8c0.1,0.2,0.2,0.4,0.3,0.6c0.2,0.4,0.4,0.7,0.6,1c-0.3,0.3-0.6,0.6-1,1c-4.2,4.6-1.3,11.5,2.9,13
	c0.2,1.1,1,2.5,2.6,4.4c1.2,2.3,2.7,4.2,4.6,5.6c4.3,4.1,8.7,5.6,13.9,6.6c11,2.2,23.2,0.7,34.1-1.6c17.5-3.7,45.9-13.5,47-42.2
	c0.1-2.6-1.2-5.8-3-7c-0.9-0.6,1,0.5,0.1-0.1c0-2.5-3.7-6.7-5.8-8.4c0.7,0.6-1.9-5.5-2.3-6.7c-0.9-2.5-1.7-5.2-2.3-7.8
	c-1.4-6.1-2.1-12.2-2.3-18.5c-0.2-10.3-12.3-10.4-12.1,0c0.1,3.9,0.1,0,0.6,3.9c-2.3-0.6-4.6,7.4-7,8.2c-19,6.2-35.8,13.6-55.5,14.8
	c0-2.8,0-5.5-0.1-8.3c-0.4-10.3-12.4-10.4-12.1,0c0.2,5.7,0.2,11.4-0.2,17.1c-0.2,3.1-0.6,6.1-1.1,9.1"/>
<path class="st3" d="M620.3,236.6c-8.5-29.5-24.5-57.7-47.4-81.3c-12.3-12.7-27.3-26.1-45-33.4c-9.8-4.1-20.4-5.9-31.1-6.5
	c-1.6-2-4.3-3.5-7.1-3.6c-67.7-3.3-119.2,56.2-133.6,105.7c-16.1,55.3,3.9,113.8,46.7,157.5c21.8,22.2,48.9,40.4,84.3,42.1
	c32.4,1.5,65.2-9.1,90-26.1C631,354.3,635.7,289.8,620.3,236.6z"/>
<path d="M556.8,229.9c-3.3-3.4-6.9-6.8-11.6-8.7c-1.7-0.7-3.9-1.3-5.9-1.3c-2.7-0.9-5.7-0.8-8.4,0.6c-8.2,4.1-12.2,13.9-7.5,21.4
	c4.4,7,15.6,9.7,23.3,5.4c3.1-1.7,5.3-4.3,6.6-7.3c1.5-1.9,2.8-4,4.1-5.9C558.5,232.7,558,231,556.8,229.9z"/>
<g id="mouth">
	<path d="M548.1,321.4c0.1-0.5-0.3-1.2-1-1.2c-0.2-0.1-0.5-0.1-0.7-0.2c-0.4,0-0.6,0.1-0.8,0.3c-30,4.4-60.5,3.1-90.6-0.1
		c-1.3-0.1-1.3,1.9,0,2c0.1,0,0.2,0,0.3,0c0,0.1-0.1,0.2,0,0.4c0.8,10.5,11.6,17.9,19.8,22.9c9.9,6.1,21.1,9.1,32.7,7.4
		c11.5-1.6,22-7.4,30.1-15.7C539.2,336,548.6,325.3,548.1,321.4z"/>
	<path d="M561.9,320.1c-7,3.1-12-0.7-16-5.4c-1.2-1.4-3.5-2.2-4.5,0c-0.5,1.1,0.3,2,1.4,2.2c1.1,1.2,2.1,2.4,3.2,3.5
		c-0.5,0.2-1,0.6-1.4,1.1c-10.1,14.1-23.5,31.5-45.4,28.6c-19.9-2.6-34.3-14.2-41.7-30c-0.3-0.6-0.6-1-1-1.3
		c0.9-1.7,1.2-3.6,2.1-5.3c1.1-2.1-2.7-3.3-3.8-1.2c-1.4,2.7-1.3,5.5-4.4,7.3c-2.9,1.7-6.6,1.7-10,1.6c-2.6-0.1-3,3.4-0.4,3.5
		c3.5,0.1,7.1,0,10.4-1.3c8.6,18,25.1,30.8,48,33.6c24.8,3.1,40.9-15,52.7-31.4c0.4-0.6,0.6-1.2,0.6-1.8c3.9,1.3,8.1,1.1,11.8-0.6
		C565.8,322.3,564.2,319.1,561.9,320.1z"/>
</g>
<path d="M437,232.4c3.3-3.4,6.9-6.8,11.6-8.7c1.7-0.7,3.9-1.3,5.9-1.3c2.7-0.9,5.7-0.8,8.4,0.6c8.2,4.1,12.2,13.9,7.5,21.4
	c-4.4,7-15.6,9.7-23.3,5.4c-3.1-1.7-5.3-4.3-6.6-7.3c-1.5-1.9-2.8-4-4.1-5.9C435.4,235.3,435.9,233.6,437,232.4z"/>
<path class="st4" d="M626.2,231c-0.9-0.8-1.9-1.4-2.8-2.1c-18.7-37.6-39.1-77-77.1-101.3c-34.6-22-77.8-23.9-116-8.7
	c-17.8,7.1-33.8,18.1-47.4,31.7c-0.5-0.4-1-0.7-1.7-0.9c-31.7-10.5-63.3,5.8-80,30.9c-22.4,33.7-19.9,75.7-33.2,112.3
	c-6,16.4-14.3,33.6-11.2,51.4c2.9,16.3,15.9,27.3,22.7,42c8.5,18.2-1.7,37.6,5.8,56.1c6.1,15.1,19.4,26.6,32.1,37.2
	c0.6,1.9,1.2,3.8,1.9,5.6c0,0.1,0.1,0.3,0.2,0.4c-0.5,2.4,0.6,5,3.9,5.8c11.9,2.7,18.7-4.3,19.1-15.2c0.3-10.3-5.3-19.7-5.1-30.1
	c0.2-10.7,6.6-19.6,7.1-30.2c0.3-7.2-2.3-14-4.5-20.8c-2.7-7.9-6.1-14.8-1.7-23.6c2.5-4.9,7.8-8.8,11.1-13.2
	c8.9-12,10.8-25.3,6.9-39.3c-0.2-0.9-0.7-1.6-1.2-2.2c6.5-8.2,9.5-16.1,10.8-26.1c0.1-0.4,0.1-0.8,0-1.1
	c4.6-6.6,13.1-10.7,18.1-16.9c3.9-4.8,5.8-9.9,6.8-15.8c1.4-8.8-2.2-21.7,3.3-29.6c5.1-7.3,22.3-10.1,30.3-15.3
	c8.3-5.4,14.8-12.7,24.2-16.7c8.8-3.7,18.6-4.1,27.6-7.4c12.7-4.6,22.6-12.4,30.5-22.3c3.8,6.7,14.7,26.5,15.7,28.1
	c5.4,8.2,11.6,14.1,21.1,18.3c21.2,9.6,51.5,10.3,70.7,23.5c0.6,0.9,1.4,1.5,2.3,1.8c0.5,0.4,1,0.7,1.5,1.2
	C623.5,243.1,631.6,235.6,626.2,231z"/>
<path class="st5" d="M412.8,724.3c-7-6.6-11.8-15.3-12.9-25c-0.5-4.8,0.2-9.7-1.6-14.3c-1.6-4-5-6.8-8.7-8.7c-7-3.6-16.9-7.3-24.3-3
	c-5.8,3.3-7.9,9.4-8.5,15.7c-0.9,0.8-1.5,2.1-1.5,3.7c0.3,14-0.8,27.8-3.5,41.5c-0.5,2.4,1,5.7,3.8,6c4.2,0.5,6.7-1.3,8.4-5.2
	c1.1-2.5,2.1-5.1,3-7.6c1,1.2,2,2.3,3,3.4c1.8,1.9,4.6,1.7,6.5,0.2c1,1.5,2,3,3.2,4.4c2.5,3,6.4,3.1,8.6-0.3c0.4-0.6,1-1.8,1.6-3
	c1,1.3,2,2.5,2.9,3.8c2.6,3.3,8,3,9.1-1.5l0.7-2.9c2,0.6,4.7,1,5.5,1.3C413.1,734.3,416.3,727.6,412.8,724.3z"/>
<path class="st6" d="M403.1,524.8c-1.1-6.3-10.8-3.6-9.6,2.7c11.7,65.9,18.4,132.6,20.2,199.5c0.2,6.4,10.2,6.4,10,0
	C421.8,659.2,414.9,591.6,403.1,524.8z"/>
<path class="st7" d="M677.4,463.8c-4.1-9.5-11.6-16.9-20.1-22.6c-8.8-6-18.9-10.1-28.9-13.5c-12.6-4.2-25.9-7.8-39.3-7.3
	c-25.9,1-45,18.7-68.1,27.6c-12.3,4.7-24.3,5-36.9,1.3c-12.2-3.6-23.6-9.4-35.8-13c-0.6-0.9-1.3-1.8-2.1-2.7
	c-6.3-6.5-18.9-3.7-26.9-2.5c-10.1,1.6-20,4.9-29.2,9.4c-17.7,8.8-32.6,22.9-42.4,40.1c-10.8,18.9-14.1,39.6-13.5,61.2
	c0.7,24.1,3,48.2,6.3,72.1c1.6,11.6,3.5,23.1,5.7,34.6c1.1,5.7,2.3,11.5,3.5,17.2c1.2,5.6,2.1,11.8,4.6,17
	c3.8,7.9,12.2,10.9,20.5,10.6c8.1-0.3,19.1-1.7,24.4-8.5c6.7-8.6,3.6-22.2,2.9-32.1c-0.9-13.9-1.8-27.7-2.7-41.6
	c-1.8-27.2-3.8-54.4-5.8-81.6c0,0,0,0,0,0c0.9-1.4,1.9-2.8,2.8-4.2c11.5,65.5,20.4,131.1,23.6,197.6c0.1,2,1.5,4.5,3.7,4.8
	c56,9.4,112.4,1.2,168.8,1.8c6.4,0.1,12.8,0.3,19.3,0.6c6.3,0.3,14.3,2.4,20.5,1c12.6-2.9,7.4-18.3,5.8-26.9
	c-2.6-14.1-4.4-28.4-5.3-42.7c-0.5-7.1-0.7-14.1-0.8-21.2c-0.1-6.9-0.5-14.3,0.4-21.2c0.4-3.4,1.6-3.8,4.6-4.8
	c2.3-0.8,4.6-1.6,6.8-2.7c4.4-2.2,8.4-5.4,11.7-9.1c6.6-7.5,10.8-16.8,13.8-26.3c3.5-11.3,5.4-23.2,7.2-34.9
	c2-13.5,3.5-27.1,4.4-40.7C681.8,488.3,682.5,475.5,677.4,463.8z"/>
<path class="st8" d="M446.4,388.8c-2.9,1.3-7.3,4.8-10.6,4.4c-3.1-0.3-6.7-5.1-8.8-7c-2.7-2.4-5.3-4.9-7.8-7.5
	c-1.5-1.5-2.9-3-4.3-4.6c-1.1-1.3-2.3-4.3-3.6-2.5c1.2-1.6,1.2-3.1,0.5-4.4c0.6-1,0.8-2.2,0.6-3.6c-0.3-1.4-0.6-2.7-0.8-4.1
	c0.8,1.4,1.7,2.8,2.5,4.2c2.8,4.5,8.7,2.2,9.3-2.5c0.4-2.9,0.8-5.8,1.2-8.7c2.8,5.4,6.9,9.1,12.7,7.6c2.2-0.6,3.5-2.6,3.7-4.8
	c0.3-4.6,1-9.2,2.1-13.7c1,4.6,1.8,9.2,2.6,13.8c0.5,2.9,3.9,4.1,6.5,3.4c0,2.3,0,4.6,0.1,6.9c0,4.5,5.4,6.4,8.5,3.5
	c0.6-0.6,1.3-1.1,1.9-1.5c1.4,3,2.5,6,3.3,9.2c0.4,1.4,0.3,4.4,1.1,5.5c0,0.1,0,0.1,0,0.2c0,0-0.1,0-0.1,0
	C460.1,382.9,452.6,386,446.4,388.8z"/>
<path class="st6" d="M681.2,485.2c-0.7-15.5-4.5-30.9-14.2-43.3c-9.3-12-23-19.5-37.3-24.1c-15.5-4.9-33.5-8.7-49.2-2.8
	c-15.8,5.9-28.7,17.5-43.9,24.7c-15.6,7.4-33.6,11.3-50.5,6.1c-8.5-2.6-14.9-8.1-22-13.2c-6.9-4.9-14.6-7.5-23.1-7.6
	c-8.7-0.1-17.3,1.9-25.7,4c-8.7,2.1-17.3,4.7-25.6,8c-15,6-29.2,14.5-40.2,26.5c-10.5,11.5-17.6,25.5-19.4,41
	c-1.1,9.7-0.4,19.5-0.1,29.2c0.3,9.4,0.7,18.7,1.1,28.1c1.8,37.3,5.3,75,15.6,111.1c2,6.9,3.5,17.3,9.1,22.3
	c5.8,5.1,16.6,3.6,23.6,3.5c7.6-0.1,15.6-0.6,21.3-6.2c4.9-4.9,6.3-12.1,6.5-18.8c0.3-9-0.7-18.2-1.2-27.2l-1.6-30.6
	c-1-19.8-2-39.5-3-59.3c-0.5-9.9-1-19.8-1.5-29.6c-0.3-6.4-10.3-6.4-10,0c1.8,35.9,3.7,71.8,5.5,107.6c0.5,8.9,0.9,17.8,1.4,26.7
	c0.3,6.6,1.5,14.4-1,20.7c-3,7.3-11.6,6.7-18.2,6.7c-4,0-8.1,0.1-12.1-0.3c-4.4-0.5-4.9-4.6-6.1-8.3
	c-10.5-32.5-14.9-66.5-17.2-100.4c-1.1-16.8-1.7-33.7-2.3-50.5c-0.5-16.1-0.7-31.4,7.5-45.9c15.4-27.1,45.9-39.1,74.8-45.7
	c8.2-1.9,17-3.8,25.3-1.9c7.7,1.7,13.4,7.1,19.6,11.5c11.9,8.6,26.8,12,41.4,10.7c15.5-1.3,30.1-7.3,43.5-15
	c12.9-7.5,25.6-19,40.9-20.8c7.9-0.9,16.1,0.8,23.7,2.5c6.9,1.5,13.7,3.6,20.1,6.5c12.8,5.8,23.5,15.1,29.2,28.2
	c5.6,13.1,6,27.9,5.2,41.9c-0.9,15.8-3.3,31.5-5.3,47.2c-1.8,14.7-2.4,30.4-7.4,44.5c-1.9,5.5-5.1,10.9-10,14.1
	c-6.4,4.1-15,4.1-22.3,3.5c-8.2-0.7-16.1-3.2-23.4-7c-5.7-3-10.8,5.6-5,8.6c8.8,4.6,19.4,8.1,30,8.8c-0.1,0.4-0.1,0.8,0,1.2
	c2.7,34,5.4,67.9,8,101.9c0.5,6.4,10.5,6.4,10,0c-2.7-34-5.4-67.9-8-101.9c0-0.5-0.1-1-0.3-1.4c3.6-0.4,7-1.1,10.3-2.3
	c13.3-4.9,19.7-17.7,22.7-30.8c3.9-17.2,5-35.2,7.1-52.6C679.5,518.4,682,501.8,681.2,485.2z"/>
<path class="st6" d="M627.4,479.4c-3.1-5.6-11.7-0.6-8.6,5c2.6,4.8,1.6,10.8,1.4,16c-0.3,6.1-0.8,12.2-1.3,18.3
	c-1.1,12.4-2.7,24.7-4.7,36.9c-1,6.3,8.6,9,9.6,2.7c2.3-13.8,4-27.6,5.2-41.5c0.6-7,1.1-14.1,1.4-21.2
	C630.6,490,630.2,484.6,627.4,479.4z"/>
<g id="tomato2">
	<g>
		<g>
			<path class="st10" d="M852.4,618.9c1.4-1.1-13.5,8.5-16.2,12.8c4.1-5.3,10.8-10.7,16.2-13.9c-8.1,4.3-14.9,11.7-17.6,19.2
				c6.8-6.4,40.5-12.8,21.6-22.4c-5.4,4.3-9.5,9.6-13.5,13.9c2.7-4.3,6.8-6.4,10.8-9.6c-1.4,2.1-2.7,5.3-4.1,7.5
				c2.7-2.1,5.4-3.2,6.8-6.4c0,1.1-1.4,1.1-2.7,2.1c0-1.1,2.7-3.2,2.7-3.2c1.4,1.1,0,4.3,0,5.3c1.4-2.1,1.4-4.3,2.7-6.4
				c0,3.2-4.1,8.5-1.4,4.3"/>
		</g>
		<g>
			<path class="st10" d="M860.5,628.5c-1.3-2.1-1.3-3.2-2.7-3.2c-2.7,7.5-5.4,17.1,1.4,23.4c8.1-4.3,6.8-18.1,4.1-24.5
				c-2.7,5.3-2.7,11.7-2.7,17.1c1.4-5.3,1.4-10.7,1.4-16c-1.4,6.4-1.4,13.9-1.4,20.3c0-5.3,0-9.6,0-13.9c0,1.1,0,10.7,0,8.5"/>
		</g>
		<g>
			<path class="st10" d="M867.2,615.7c-1.4,2.1,0,3.2-1.4,5.3c9.5,6.4,24.3,7.5,36.5,9.6c-4.1-9.6-21.6-10.7-32.4-13.9
				c5.4,5.3,13.5,8.5,23,10.7c-5.4-5.3-13.5-7.5-21.6-6.4c6.8,2.1,13.5,4.3,18.9,5.3c-1.4-1.1-4.1-3.2-6.8-4.3"/>
		</g>
		<g>
			<path class="st10" d="M861.8,608.3c6.8-1.1,16.2,2.1,23,2.1c-8.1-2.1-10.8-2.1-17.6,1.1c8.1,2.1,10.8,2.1,17.6-1.1
				c-9.5-2.1-18.9,0-25.7,4.3c8.1,1.1,16.2,1.1,24.3-2.1c-8.1-2.1-12.2-2.1-18.9,1.1c5.4,0,9.5-2.1,14.9-3.2
				c-8.1-3.2-14.9-2.1-20.3,2.1c4.1,1.1,9.5,1.1,12.2,0"/>
		</g>
		<g>
			<path class="st10" d="M856.4,604c4.1-1.1,8.1-2.1,13.5-2.1c-8.1-1.1-17.6,0-21.6,5.3c6.8,5.3,16.2,5.3,23,2.1
				c-8.1-1.1-17.6,0-25.7,3.2c8.1-1.1,16.2-2.1,23-4.3c-6.8-1.1-13.5-1.1-20.3,0c6.8,0,13.5-2.1,18.9-4.3c-8.1-1.1-8.1,0-14.9,2.1
				c4.1,1.1,5.4,0,8.1,0"/>
		</g>
		<g>
			<path class="st10" d="M876.7,600.8c5.4,5.3,17.6,6.4,25.7,4.3c-6.8-6.4-18.9-5.3-29.7-2.1c8.1,0,16.2-1.1,24.3-3.2
				c-9.5,1.1-17.6,3.2-25.7,6.4c4.1-1.1,6.8-2.1,10.8-3.2c-5.4-1.1-6.8,1.1-12.2,2.1"/>
		</g>
		<g>
			<path class="st10" d="M874,594.4c-2.7-2.1-2.7-4.3-6.8-5.3c-5.4,6.4-2.7,11.7,5.4,14.9c0-5.3-2.7-8.5-6.8-11.7
				c0,5.3,4.1,9.6,10.8,12.8c1.4-6.4-2.7-11.7-9.5-14.9c-1.4,5.3,1.4,9.6,8.1,12.8c-1.4-3.2-1.4-5.3-2.7-8.5c-5.4,2.1,0,2.1,0,4.3"
				/>
		</g>
		<g>
			<path class="st10" d="M879.4,595.5c0-1.1,17.6-7.5,23-11.7c-41.9,0-10.8,27.7-2.7,5.3c-8.1-2.1-16.2,1.1-21.6,6.4
				c8.1,0,14.9-3.2,20.3-7.5c-8.1-1.1-16.2,3.2-21.6,8.5c5.4-2.1,9.5-3.2,14.9-6.4c-2.7,0-4.1,1.1-5.4,2.1"/>
		</g>
		<g>
			<path class="st10" d="M845.9,681.8c1.4-1.1-13.5,8.5-16.2,12.8c4.1-5.3,10.8-10.7,16.2-13.9c-8.1,4.3-14.9,11.7-17.6,19.2
				c6.8-6.4,40.5-12.8,21.6-22.4c-5.4,4.3-9.5,9.6-13.5,13.9c2.7-4.3,6.8-6.4,10.8-9.6c-1.4,2.1-2.7,5.3-4.1,7.5
				c2.7-2.1,5.4-3.2,6.8-6.4c0,1.1-1.4,1.1-2.7,2.1c0-1.1,2.7-3.2,2.7-3.2c1.4,1.1,0,4.3,0,5.3c1.4-2.1,1.4-4.3,2.7-6.4
				c0,3.2-4.1,8.5-1.4,4.3"/>
		</g>
		<g>
			<path class="st10" d="M854,691.4c-1.3-2.1-1.3-3.2-2.7-3.2c-2.7,7.5-5.4,17.1,1.4,23.4c8.1-4.3,6.8-18.1,4.1-24.5
				c-2.7,5.3-2.7,11.7-2.7,17.1c1.4-5.3,1.4-10.7,1.4-16c-1.4,6.4-1.4,13.9-1.4,20.3c0-5.3,0-9.6,0-13.9c0,1.1,0,10.7,0,8.5"/>
		</g>
		<g>
			<path class="st10" d="M860.8,678.6c-1.4,2.1,0,3.2-1.4,5.3c9.5,6.4,24.3,7.5,36.5,9.6c-4.1-9.6-21.6-10.7-32.4-13.9
				c5.4,5.3,13.5,8.5,23,10.7c-5.4-5.3-13.5-7.5-21.6-6.4c6.8,2.1,13.5,4.3,18.9,5.3c-1.3-1.1-4.1-3.2-6.8-4.3"/>
		</g>
		<g>
			<path class="st10" d="M855.4,671.2c6.8-1.1,16.2,2.1,23,2.1c-8.1-2.1-10.8-2.1-17.6,1.1c8.1,2.1,10.8,2.1,17.6-1.1
				c-9.5-2.1-18.9,0-25.7,4.3c8.1,1.1,16.2,1.1,24.3-2.1c-8.1-2.1-12.2-2.1-18.9,1.1c5.4,0,9.5-2.1,14.9-3.2
				c-8.1-3.2-14.9-2.1-20.3,2.1c4.1,1.1,9.5,1.1,12.2,0"/>
		</g>
		<g>
			<path class="st10" d="M850,666.9c4.1-1.1,8.1-2.1,13.5-2.1c-8.1-1.1-17.6,0-21.6,5.3c6.8,5.3,16.2,5.3,23,2.1
				c-8.1-1.1-17.6,0-25.7,3.2c8.1-1.1,16.2-2.1,23-4.3c-6.8-1.1-13.5-1.1-20.3,0c6.8,0,13.5-2.1,18.9-4.3c-8.1-1.1-8.1,0-14.9,2.1
				c4.1,1.1,5.4,0,8.1,0"/>
		</g>
		<g>
			<path class="st10" d="M870.2,663.7c5.4,5.3,17.6,6.4,25.7,4.3c-6.8-6.4-18.9-5.3-29.7-2.1c8.1,0,16.2-1.1,24.3-3.2
				c-9.5,1.1-17.6,3.2-25.7,6.4c4.1-1.1,6.8-2.1,10.8-3.2c-5.4-1.1-6.8,1.1-12.2,2.1"/>
		</g>
		<g>
			<path class="st10" d="M867.5,657.3c-2.7-2.1-2.7-4.3-6.8-5.3c-5.4,6.4-2.7,11.7,5.4,14.9c0-5.3-2.7-8.5-6.8-11.7
				c0,5.3,4.1,9.6,10.8,12.8c1.4-6.4-2.7-11.7-9.5-14.9c-1.4,5.3,1.4,9.6,8.1,12.8c-1.3-3.2-1.3-5.3-2.7-8.5c-5.4,2.1,0,2.1,0,4.3"
				/>
		</g>
		<g>
			<path class="st10" d="M872.9,658.4c0-1.1,17.6-7.5,23-11.7c-41.9,0-10.8,27.7-2.7,5.3c-8.1-2.1-16.2,1.1-21.6,6.4
				c8.1,0,14.9-3.2,20.3-7.5c-8.1-1.1-16.2,3.2-21.6,8.5c5.4-2.1,9.5-3.2,14.9-6.4c-2.7,0-4.1,1.1-5.4,2.1"/>
		</g>
		<g>
			<path class="st10" d="M922.2,688.6c0.4-1.5-5.7,12.9-5.1,17.6c-0.1-6.2,2-13.6,4.4-18.5c-4,7-4.7,16.2-2,23.6
				c1.4-8.3,25.8-27.8,3.3-28c-1.7,5.9-1.6,12.1-2.1,17.4c-0.6-4.7,1.4-8.2,2.7-12.7c0.3,2.4,1.3,5.7,1.6,8c0.9-2.9,2.4-5,1.4-8.2
				c0.7,0.9-0.4,1.5-0.9,2.9c-0.7-0.9,0.1-3.8,0.1-3.8c1.9,0.3,2.9,3.6,3.6,4.5c-0.3-2.4-1.7-4.2-2-6.5c2.2,2.7,2.3,8.9,1.7,4.2"/>
		</g>
		<g>
			<path class="st10" d="M935.5,693.3c-2.6-1.2-3.3-2.1-4.4-1.6c2.7,7.5,6.9,16.7,16.9,19.3c4-7-6.5-18.2-13.1-22.5
				c1.3,5.7,5.6,11.1,9.2,15.6c-2.4-5.1-6-9.6-9.6-14.1c3.2,6,8.2,12.3,12.5,17.7c-3.6-4.5-6.5-8.1-9.3-11.7c0.7,0.9,7.2,9,5.7,7.2"
				/>
		</g>
		<g>
			<path class="st10" d="M932.6,679.7c0.3,2.4,2.2,2.7,2.4,5.1c12.3,1.5,25.6-3.9,37.4-7.1c-9.9-6.4-25.5,0-36.8,1.8
				c8.2,2.3,17.2,1.6,26.6-0.6c-8.2-2.3-16.5-0.7-22.6,3.6c7.2-1,14.3-2,19.6-3.4c-1.9-0.3-5.6-1-8.6-0.8"/>
		</g>
		<g>
			<path class="st10" d="M923,675.6c5-3.7,15.2-5,20.9-7.8c-8.3,1.6-10.6,2.7-14.2,8.3c8.3-1.6,10.6-2.7,14.2-8.3
				c-9.5,2.2-16,7.9-18.9,14.4c7.6-2.5,14.5-5.9,19.2-12c-8.3,1.6-11.7,3.3-15.3,8.8c4.6-2.3,6.6-5.8,10.4-8.9
				c-9,0.7-14,4.4-15.7,10.3c4.2-0.8,8.7-3.1,10.3-5.1"/>
		</g>
		<g>
			<path class="st10" d="M915.6,674.2c2.7-2.6,5.4-5.2,10-7.5c-7.6,2.5-14.9,7.4-14.7,13.6c9.3,1.7,17.3-2.3,20.9-7.8
				c-7.6,2.5-14.9,7.4-19.6,13.5c6.2-4.3,12.3-8.6,16.6-13.2c-6.4,1.9-12.2,4.8-17.2,8.5c5.7-2.8,10-7.5,13.2-11.5
				c-7.6,2.5-6.9,3.4-11.2,8c4.2-0.8,4.6-2.3,6.9-3.4"/>
		</g>
		<g>
			<path class="st10" d="M930.6,663.1c8.2,2.3,19.2-1.9,24.6-7.1c-10-2.6-19.6,3.4-26.6,10.6c6.9-3.4,13-7.7,18.5-12.9
				c-7.3,4.9-12.7,10.1-17.5,16.2c2.7-2.6,4.3-4.6,7-7.2c-5.3,1.4-5,3.7-8.9,6.9"/>
		</g>
		<g>
			<path class="st10" d="M924,658.8c-3.7-0.7-5.2-2.5-9.3-1.7c-0.3,7.7,5.6,11.1,14.6,10.4c-3.6-4.5-8-6.1-13.6-7.1
				c3.6,4.5,9.9,6.4,17.8,6.3c-3.2-6-10.2-8.8-18.1-8.7c2.4,5.1,7.6,7.6,15.5,7.4c-3.3-2.1-4.7-4-8-6.1c-3.1,4.1,1.4,1.8,2.9,3.6"/>
		</g>
		<g>
			<path class="st10" d="M929.3,657.4c-0.7-0.9,9.9-13.7,11.6-19.6c-35.5,17.5,9.5,28,1.3,5.7c-8.3,1.6-13,7.7-14,14.5
				c6.9-3.4,10.4-8.9,12.2-14.8c-7.6,2.5-11.6,9.5-12.6,16.3c3.1-4.1,5.9-6.7,8.3-11.6c-2.3,1.1-2.7,2.6-3.2,4.1"/>
		</g>
		<g>
			<path class="st10" d="M856.2,732.5c1.9-0.3-17.2,1.4-22.4,3.9c7.1-2.8,16.4-4.4,23.1-4.7c-9.7,0.1-20.5,3.5-27.9,8.7
				c10.1-2.5,42.9,6.5,33.5-9.6c-7.5,1.3-14.5,4-20.9,5.9c5.2-2.4,10.1-2.5,15.7-3.5c-2.6,1.2-5.9,3.3-8.5,4.6
				c3.7-0.6,6.7-0.4,10.1-2.5c-0.7,0.9-1.9,0.3-3.7,0.6c0.7-0.9,4.5-1.5,4.5-1.5c0.4,1.5-2.9,3.6-3.6,4.5c2.6-1.2,4.1-3,6.7-4.2
				c-2.2,2.7-9.3,5.4-4.1,3"/>
		</g>
		<g>
			<path class="st10" d="M856.5,744c0.3-2.4,1.1-3.3-0.1-3.8c-7.4,5.1-16.2,12-14.9,20.3c9.7-0.1,18.1-12.4,20.2-18.9
				c-5.9,3.3-10.3,8.7-14,13.2c4.8-3.9,8.4-8.4,12.1-12.9c-5.5,4.8-10.6,11.1-15,16.5c3.6-4.5,6.6-8.1,9.5-11.7
				c-0.7,0.9-7.3,9-5.8,7.2"/>
		</g>
		<g>
			<path class="st10" d="M870.9,736.2c-2.6,1.2-2.2,2.7-4.8,3.9c3.6,9.4,15.4,16.6,24.1,23.6c3.2-9.8-10.9-18.2-17.8-25.5
				c0.9,6.8,5.5,12.9,12,18.8c-0.9-6.8-6.3-12-13.8-14.6c4.2,4.7,8.5,9.3,12.3,12.5c-0.4-1.5-1.2-4.4-2.8-6.5"/>
		</g>
		<g>
			<path class="st10" d="M871.5,727.6c6.4,2,12.2,8.7,17.9,11.6c-5.4-5.3-7.6-6.4-15.5-6.6c5.4,5.2,7.6,6.4,15.5,6.6
				c-6.5-5.8-15.9-8.1-24.5-7.4c6.1,4.4,12.9,7.8,21.9,8.6c-5.4-5.2-8.8-7-16.7-7.2c4.5,2.3,9.4,2.2,14.7,3.6
				c-4.6-6.1-11-8.1-18.5-6.8c2.7,2.6,7.2,4.9,10.2,5.2"/>
		</g>
		<g>
			<path class="st10" d="M869.9,721.7c4.1,0.8,8.3,1.7,12.8,4c-6.1-4.4-14.8-7.5-21.8-4.7c2,7.4,10,11.4,17.9,11.6
				c-6.1-4.4-14.8-7.5-23.8-8.3c7.5,2.6,15.1,5.1,22.2,6.2c-5-3.8-10.6-6.7-17.1-8.6c5.7,2.9,12.8,4,18.8,4.5
				c-6.1-4.4-6.8-3.5-14-4.5c2.7,2.6,4.5,2.3,6.8,3.5"/>
		</g>
		<g>
			<path class="st10" d="M889.1,727.6c0.9,6.8,10.4,12.9,18.7,14.5c-1.3-8.3-12.3-12.5-23.6-14.5c6.8,3.5,14.4,6,22.7,7.7
				c-8.7-3.1-17-4.8-26-5.6c4.1,0.8,7.1,1.1,11.3,1.9c-3.8-3.2-6.4-2-11.7-3.4"/>
		</g>
		<g>
			<path class="st10" d="M891.2,721.1c-0.8-2.9,0.6-4.7-2-7.4c-8.9,3.1-10.3,8.7-5.7,14.9c3.7-4.5,3.6-8.3,2.3-12.7
				c-3.7,4.5-3.2,9.8,0.3,15.4c5.5-4.8,5.8-11,2.3-16.6c-4.8,3.9-5.4,8.7-1.9,14.2c1.1-3.3,2.5-5.1,3.6-8.3c-6-0.5-1.5,1.8-2.9,3.6"
				/>
		</g>
		<g>
			<path class="st10" d="M895,724.3c0.7-0.9,19.9,1.2,27.4-0.1c-35.3-17.9-28.1,18.7-5.9,3.3c-5.4-5.3-14.4-6-22.6-3.8
				c6.8,3.5,14.7,3.6,22.2,2.4c-6.1-4.4-15.8-4.2-24-2c6,0.5,10.1,1.3,16.9,1c-2.3-1.1-4.1-0.8-6-0.5"/>
		</g>
		<g>
			<path class="st10" d="M943.5,611.5c1.9,0.1-17.1-2.1-22.9-0.8c7.7-1.2,17.3-0.9,23.9,0.1c-9.5-1.8-21-0.8-29.8,2.7
				c10.5-0.4,39.3,15,35.5-2.5c-7.6-0.3-15.4,1-22.1,1.5c5.8-1.3,10.5-0.4,16.3-0.2c-2.9,0.7-6.8,2-9.7,2.7c3.8,0.1,6.6,1,10.5-0.4
				c-1,0.7-1.9-0.1-3.8-0.1c1-0.7,4.8-0.6,4.8-0.6c-0.1,1.5-4,2.9-5,3.6c2.9-0.7,4.9-2.1,7.8-2.7c-3,2.2-10.7,3.4-4.9,2.1"/>
		</g>
		<g>
			<path class="st10" d="M940,622.7c1.1-2.2,2.1-2.9,1.2-3.7c-8.8,3.5-19.6,8.4-21,16.6c9.5,1.8,21.5-8.3,25.7-14.2
				c-6.8,2-12.8,6.3-17.8,9.9c5.9-2.8,10.9-6.4,15.9-10c-6.9,3.5-13.9,8.6-19.9,12.9c5-3.6,9-6.5,13-9.3c-1,0.7-10,7.2-8,5.8"/>
		</g>
		<g>
			<path class="st10" d="M956.5,618c-2.9,0.7-3,2.2-5.9,2.8c0.4,9.8,9.4,19.2,15.6,27.7c6.2-8.8-4.6-19.8-8.9-28.2
				c-1.3,6.7,1.1,13.6,5.5,20.6c1.3-6.7-2.1-12.9-8.6-16.9c2.6,5.4,5.1,10.7,7.8,14.6c0.1-1.5,0.3-4.5-0.6-6.8"/>
		</g>
		<g>
			<path class="st10" d="M959.9,609.8c5.6,3.2,8.9,10.9,13.5,14.8c-3.5-6.2-5.3-7.7-12.8-9.5c3.5,6.2,5.3,7.7,12.8,9.5
				c-4.4-7-12.8-11-21.3-12.1c4.5,5.4,9.9,10.2,18.4,12.7c-3.5-6.2-6.2-8.5-13.8-10.3c3.6,3.1,8.4,4.1,13,6.5
				c-2.5-6.9-8-10.1-15.7-10.4c1.7,3.1,5.4,6.2,8.2,7.1"/>
		</g>
		<g>
			<path class="st10" d="M960.2,603.8c3.7,1.6,7.5,3.3,11.1,6.4c-4.5-5.4-11.8-10.2-19.6-9c-0.4,7.5,5.9,13,13.5,14.8
				c-4.5-5.4-11.8-10.2-20.3-12.8c6.5,4,12.9,8,19.5,10.5c-3.6-4.7-8.1-8.6-13.7-11.8c4.6,3.9,11.1,6.4,16.7,8.1
				c-4.5-5.4-5.5-4.7-12-7.2c1.7,3.1,3.6,3.1,5.5,4.7"/>
		</g>
		<g>
			<path class="st10" d="M976.9,613.4c-1.4,6.7,5.9,14.5,13.3,17.8c1.4-8.2-7.8-14.6-18.1-18.8c5.5,4.7,11.9,8.7,19.4,12
				c-7.4-4.8-14.8-8.1-23.3-10.6c3.7,1.6,6.5,2.5,10.3,4.1c-2.7-3.9-5.6-3.2-10.2-5.7"/>
		</g>
		<g>
			<path class="st10" d="M981,607.5c0.2-3,2.2-4.4,0.4-7.5c-9.6,1.2-12.8,6.3-10.3,13.2c5-3.6,6.2-7.3,6.4-11.8
				c-5,3.6-6.3,8.8-4.7,14.9c6.9-3.5,9.2-9.5,7.6-15.6c-5.9,2.8-8.1,7.3-6.5,13.3c2.1-2.9,4.1-4.4,6.2-7.3c-5.6-1.7-2,1.4-4,2.9"/>
		</g>
		<g>
			<path class="st10" d="M983.7,611.4c1-0.7,18.8,5.2,26.5,5.5c-28.2-24.4-33.2,12.4-6.8,2c-3.5-6.2-11.9-8.7-20.6-8.3
				c5.5,4.7,13,6.5,20.7,6.8c-4.5-5.4-13.9-7.3-22.6-6.8c5.6,1.7,9.4,3.4,16,4.3c-1.8-1.6-3.7-1.6-5.6-1.7"/>
		</g>
		<g>
			<path class="st10" d="M998.3,658.4c1.7,0.7-14.4-7.6-20.4-8.3c7.7,1.4,16.2,4.9,21.7,8c-7.6-4.8-18.7-7.6-28.5-7.4
				c9.8,3.1,27.8,26.6,33.6,9.4c-6.8-2.8-14.5-4.2-20.8-5.9c6,0.7,9.8,3.1,14.9,5.2c-3-0.4-7.3-0.4-10.2-0.8
				c3.4,1.4,5.5,3.1,9.8,3.1c-1.3,0.3-1.7-0.7-3.4-1.4c1.3-0.3,4.7,1.1,4.7,1.1c-0.9,1.3-5.2,1.3-6.4,1.6c3,0.4,5.6-0.3,8.5,0.1
				c-3.9,1-11.5-0.5-5.6,0.3"/>
		</g>
		<g>
			<path class="st10" d="M989.2,667.4c2.2-1.7,3.4-2,3-3c-9.8,0.2-22.2,1.1-27.9,8.1c7.6,4.8,23.9-0.4,30.8-4.4
				c-7.3-0.4-15,1.5-21.4,3.2c6.8-0.6,13.3-2.2,19.7-3.8c-8.1,0.9-17.1,3.2-24.9,5.1c6.4-1.6,11.6-2.9,16.7-4.2
				c-1.3,0.3-12.9,3.2-10.3,2.6"/>
		</g>
		<g>
			<path class="st10" d="M1006.7,668.6c-3-0.4-3.9,1-6.9,0.6c-4.8,9.1-1.6,20.5-0.5,30.3c10.3-6,6.3-19.5,6.9-28.6
				c-4.8,5.7-6.2,12.7-5.9,20.5c4.8-5.7,4.9-12.4,1.1-18.2c-0.5,5.7-1,11.5-0.7,15.8c0.9-1.3,2.6-4,3.1-6.4"/>
		</g>
		<g>
			<path class="st10" d="M1014.1,662.2c3.3,4.8,2.4,12.8,4.4,17.9c0.1-6.7-0.7-8.8-6.6-12.9c-0.1,6.7,0.7,8.8,6.6,12.9
				c-0.3-7.8-5.8-14.2-13-18c1.2,6.4,3.6,12.5,10,17.6c0.1-6.7-1.1-9.8-7-13.9c1.6,4.1,5.5,6.5,8.4,10.2c1.4-7.1-1.9-11.8-8.7-14.6
				c-0.1,3.4,1.6,7.4,3.7,9.1"/>
		</g>
		<g>
			<path class="st10" d="M1017.6,656.9c2.5,2.7,5,5.4,6.7,9.5c-1.2-6.4-5.3-13.2-13-14.6c-4.4,6.7-1.5,13.8,4.4,17.9
				c-1.2-6.4-5.3-13.2-11.7-18.3c3.8,5.8,7.5,11.5,12.1,16c-0.8-5.4-2.8-10.5-6.2-15.2c2.1,5.1,6.7,9.5,10.9,12.9
				c-1.2-6.4-2.5-6.1-7.1-10.5c-0.1,3.4,1.6,4.1,2.5,6.1"/>
		</g>
		<g>
			<path class="st10" d="M1027.6,671.1c-4.8,5.7-2.4,15.1,2.7,20.6c5.7-7,0.7-15.8-6.5-23c2.5,6.1,6.2,11.9,11.3,17.3
				c-4.2-6.8-9.2-12.2-15.5-17.3c2.5,2.7,4.6,4.4,7.1,7.1c-0.4-4.4-3.3-4.8-6.3-8.5"/>
		</g>
		<g>
			<path class="st10" d="M1034.5,667.2c1.7-2.7,4.3-3.3,4.4-6.7c-9.4-2.1-15,1.5-16.4,8.6c6.4-1.6,9.5-4.6,12.1-8.6
				c-6.4,1.6-10.4,6-12.2,12c8.1-0.9,13.3-5.6,15.1-11.6c-6.8,0.6-11.2,3.9-13,10c3.4-2,6-2.6,9.5-4.6c-4.2-3.4-2.6,0.7-5.1,1.3"/>
		</g>
		<g>
			<path class="st10" d="M1034.9,671.6c1.3-0.3,14.4,10.9,21.1,13.7c-12.7-31.5-36.8,0.3-7.3-0.4c0.1-6.7-6.2-11.9-14.3-14.3
				c2.5,6.1,8.4,10.2,15.2,13c-1.2-6.4-8.8-11.2-16.9-13.6c4.2,3.4,6.7,6.1,12.2,9.2c-0.8-2-2.5-2.7-4.2-3.4"/>
		</g>
		<g>
			<path class="st10" d="M929.6,742.9c1.4-1.1-13.5,8.5-16.2,12.8c4.1-5.3,10.8-10.7,16.2-13.9c-8.1,4.3-14.9,11.7-17.6,19.2
				c6.8-6.4,40.5-12.8,21.6-22.4c-5.4,4.3-9.5,9.6-13.5,13.9c2.7-4.3,6.8-6.4,10.8-9.6c-1.4,2.1-2.7,5.3-4.1,7.5
				c2.7-2.1,5.4-3.2,6.8-6.4c0,1.1-1.4,1.1-2.7,2.1c0-1.1,2.7-3.2,2.7-3.2c1.3,1.1,0,4.3,0,5.3c1.3-2.1,1.3-4.3,2.7-6.4
				c0,3.2-4.1,8.5-1.4,4.3"/>
		</g>
		<g>
			<path class="st10" d="M937.7,752.5c-1.4-2.1-1.4-3.2-2.7-3.2c-2.7,7.5-5.4,17.1,1.4,23.4c8.1-4.3,6.8-18.1,4.1-24.5
				c-2.7,5.3-2.7,11.7-2.7,17.1c1.4-5.3,1.4-10.7,1.4-16c-1.4,6.4-1.4,13.9-1.4,20.3c0-5.3,0-9.6,0-13.9c0,1.1,0,10.7,0,8.5"/>
		</g>
		<g>
			<path class="st10" d="M944.5,739.7c-1.4,2.1,0,3.2-1.4,5.3c9.5,6.4,24.3,7.5,36.5,9.6c-4.1-9.6-21.6-10.7-32.4-13.9
				c5.4,5.3,13.5,8.5,23,10.7c-5.4-5.3-13.5-7.5-21.6-6.4c6.8,2.1,13.5,4.3,18.9,5.3c-1.3-1.1-4.1-3.2-6.8-4.3"/>
		</g>
		<g>
			<path class="st10" d="M939,732.2c6.8-1.1,16.2,2.1,23,2.1c-8.1-2.1-10.8-2.1-17.6,1.1c8.1,2.1,10.8,2.1,17.6-1.1
				c-9.5-2.1-18.9,0-25.7,4.3c8.1,1.1,16.2,1.1,24.3-2.1c-8.1-2.1-12.2-2.1-18.9,1.1c5.4,0,9.5-2.1,14.9-3.2
				c-8.1-3.2-14.9-2.1-20.3,2.1c4.1,1.1,9.5,1.1,12.2,0"/>
		</g>
		<g>
			<path class="st10" d="M933.6,727.9c4.1-1.1,8.1-2.1,13.5-2.1c-8.1-1.1-17.6,0-21.6,5.3c6.8,5.3,16.2,5.3,23,2.1
				c-8.1-1.1-17.6,0-25.7,3.2c8.1-1.1,16.2-2.1,23-4.3c-6.8-1.1-13.5-1.1-20.3,0c6.8,0,13.5-2.1,18.9-4.3c-8.1-1.1-8.1,0-14.9,2.1
				c4.1,1.1,5.4,0,8.1,0"/>
		</g>
		<g>
			<path class="st10" d="M953.9,724.7c5.4,5.3,17.6,6.4,25.7,4.3c-6.8-6.4-18.9-5.3-29.7-2.1c8.1,0,16.2-1.1,24.3-3.2
				c-9.5,1.1-17.6,3.2-25.7,6.4c4.1-1.1,6.8-2.1,10.8-3.2c-5.4-1.1-6.8,1.1-12.2,2.1"/>
		</g>
		<g>
			<path class="st10" d="M951.2,718.3c-2.7-2.1-2.7-4.3-6.8-5.3c-5.4,6.4-2.7,11.7,5.4,14.9c0-5.3-2.7-8.5-6.8-11.7
				c0,5.3,4.1,9.6,10.8,12.8c1.4-6.4-2.7-11.7-9.5-14.9c-1.4,5.3,1.4,9.6,8.1,12.8c-1.4-3.2-1.4-5.3-2.7-8.5c-5.4,2.1,0,2.1,0,4.3"
				/>
		</g>
		<g>
			<path class="st10" d="M956.6,719.4c0-1.1,17.6-7.5,23-11.7c-41.9,0-10.8,27.7-2.7,5.3c-8.1-2.1-16.2,1.1-21.6,6.4
				c8.1,0,14.9-3.2,20.3-7.5c-8.1-1.1-16.2,3.2-21.6,8.5c5.4-2.1,9.5-3.2,14.9-6.4c-2.7,0-4.1,1.1-5.4,2.1"/>
		</g>
		<g>
			<path class="st10" d="M962,756.7c1.4-1.1-13.5,8.5-16.2,12.8c4.1-5.3,10.8-10.7,16.2-13.9c-8.1,4.3-14.9,11.7-17.6,19.2
				c6.8-6.4,40.5-12.8,21.6-22.4c-5.4,4.3-9.5,9.6-13.5,13.9c2.7-4.3,6.8-6.4,10.8-9.6c-1.4,2.1-2.7,5.3-4.1,7.5
				c2.7-2.1,5.4-3.2,6.8-6.4c0,1.1-1.4,1.1-2.7,2.1c0-1.1,2.7-3.2,2.7-3.2c1.4,1.1,0,4.3,0,5.3c1.4-2.1,1.4-4.3,2.7-6.4
				c0,3.2-4.1,8.5-1.4,4.3"/>
		</g>
		<g>
			<path class="st10" d="M970.1,766.3c-1.4-2.1-1.4-3.2-2.7-3.2c-2.7,7.5-5.4,17.1,1.4,23.4c8.1-4.3,6.8-18.1,4.1-24.5
				c-2.7,5.3-2.7,11.7-2.7,17.1c1.4-5.3,1.4-10.7,1.4-16c-1.4,6.4-1.4,13.9-1.4,20.3c0-5.3,0-9.6,0-13.9c0,1.1,0,10.7,0,8.5"/>
		</g>
		<g>
			<path class="st10" d="M976.9,753.5c-1.4,2.1,0,3.2-1.4,5.3c9.5,6.4,24.3,7.5,36.5,9.6c-4.1-9.6-21.6-10.7-32.4-13.9
				c5.4,5.3,13.5,8.5,23,10.7c-5.4-5.3-13.5-7.5-21.6-6.4c6.8,2.1,13.5,4.3,18.9,5.3c-1.3-1.1-4.1-3.2-6.8-4.3"/>
		</g>
		<g>
			<path class="st10" d="M971.5,746.1c6.8-1.1,16.2,2.1,23,2.1c-8.1-2.1-10.8-2.1-17.6,1.1c8.1,2.1,10.8,2.1,17.6-1.1
				c-9.5-2.1-18.9,0-25.7,4.3c8.1,1.1,16.2,1.1,24.3-2.1c-8.1-2.1-12.2-2.1-18.9,1.1c5.4,0,9.5-2.1,14.9-3.2
				c-8.1-3.2-14.9-2.1-20.3,2.1c4.1,1.1,9.5,1.1,12.2,0"/>
		</g>
		<g>
			<path class="st10" d="M966.1,741.8c4.1-1.1,8.1-2.1,13.5-2.1c-8.1-1.1-17.6,0-21.6,5.3c6.8,5.3,16.2,5.3,23,2.1
				c-8.1-1.1-17.6,0-25.7,3.2c8.1-1.1,16.2-2.1,23-4.3c-6.8-1.1-13.5-1.1-20.3,0c6.8,0,13.5-2.1,18.9-4.3c-8.1-1.1-8.1,0-14.9,2.1
				c4.1,1.1,5.4,0,8.1,0"/>
		</g>
		<g>
			<path class="st10" d="M986.4,738.6c5.4,5.3,17.6,6.4,25.7,4.3c-6.8-6.4-18.9-5.3-29.7-2.1c8.1,0,16.2-1.1,24.3-3.2
				c-9.5,1.1-17.6,3.2-25.7,6.4c4.1-1.1,6.8-2.1,10.8-3.2c-5.4-1.1-6.8,1.1-12.2,2.1"/>
		</g>
		<g>
			<path class="st10" d="M983.6,732.2c-2.7-2.1-2.7-4.3-6.8-5.3c-5.4,6.4-2.7,11.7,5.4,14.9c0-5.3-2.7-8.5-6.8-11.7
				c0,5.3,4.1,9.6,10.8,12.8c1.3-6.4-2.7-11.7-9.5-14.9c-1.4,5.3,1.4,9.6,8.1,12.8c-1.4-3.2-1.4-5.3-2.7-8.5c-5.4,2.1,0,2.1,0,4.3"
				/>
		</g>
		<g>
			<path class="st10" d="M989.1,733.3c0-1.1,17.6-7.5,23-11.7c-41.9,0-10.8,27.7-2.7,5.3c-8.1-2.1-16.2,1.1-21.6,6.4
				c8.1,0,14.9-3.2,20.3-7.5c-8.1-1.1-16.2,3.2-21.6,8.5c5.4-2.1,9.5-3.2,14.9-6.4c-2.7,0-4.1,1.1-5.4,2.1"/>
		</g>
		<g>
			<path class="st10" d="M874.5,795.6c1.4-1.1-13.5,8.5-16.2,12.8c4.1-5.3,10.8-10.7,16.2-13.9c-8.1,4.3-14.9,11.7-17.6,19.2
				c6.8-6.4,40.5-12.8,21.6-22.4c-5.4,4.3-9.5,9.6-13.5,13.9c2.7-4.3,6.8-6.4,10.8-9.6c-1.4,2.1-2.7,5.3-4.1,7.5
				c2.7-2.1,5.4-3.2,6.8-6.4c0,1.1-1.4,1.1-2.7,2.1c0-1.1,2.7-3.2,2.7-3.2c1.4,1.1,0,4.3,0,5.3c1.4-2.1,1.4-4.3,2.7-6.4
				c0,3.2-4.1,8.5-1.4,4.3"/>
		</g>
		<g>
			<path class="st10" d="M882.6,805.2c-1.3-2.1-1.3-3.2-2.7-3.2c-2.7,7.5-5.4,17.1,1.4,23.4c8.1-4.3,6.8-18.1,4.1-24.5
				c-2.7,5.3-2.7,11.7-2.7,17.1c1.4-5.3,1.4-10.7,1.4-16c-1.4,6.4-1.4,13.9-1.4,20.3c0-5.3,0-9.6,0-13.9c0,1.1,0,10.7,0,8.5"/>
		</g>
		<g>
			<path class="st10" d="M889.4,792.4c-1.4,2.1,0,3.2-1.4,5.3c9.5,6.4,24.3,7.5,36.5,9.6c-4.1-9.6-21.6-10.7-32.4-13.9
				c5.4,5.3,13.5,8.5,23,10.7c-5.4-5.3-13.5-7.5-21.6-6.4c6.8,2.1,13.5,4.3,18.9,5.3c-1.3-1.1-4.1-3.2-6.8-4.3"/>
		</g>
		<g>
			<path class="st10" d="M884,785c6.8-1.1,16.2,2.1,23,2.1c-8.1-2.1-10.8-2.1-17.6,1.1c8.1,2.1,10.8,2.1,17.6-1.1
				c-9.5-2.1-18.9,0-25.7,4.3c8.1,1.1,16.2,1.1,24.3-2.1c-8.1-2.1-12.2-2.1-18.9,1.1c5.4,0,9.5-2.1,14.9-3.2
				c-8.1-3.2-14.9-2.1-20.3,2.1c4.1,1.1,9.5,1.1,12.2,0"/>
		</g>
		<g>
			<path class="st10" d="M878.6,780.7c4.1-1.1,8.1-2.1,13.5-2.1c-8.1-1.1-17.6,0-21.6,5.3c6.8,5.3,16.2,5.3,23,2.1
				c-8.1-1.1-17.6,0-25.7,3.2c8.1-1.1,16.2-2.1,23-4.3c-6.8-1.1-13.5-1.1-20.3,0c6.8,0,13.5-2.1,18.9-4.3c-8.1-1.1-8.1,0-14.9,2.1
				c4.1,1.1,5.4,0,8.1,0"/>
		</g>
		<g>
			<path class="st10" d="M898.8,777.5c5.4,5.3,17.6,6.4,25.7,4.3c-6.8-6.4-18.9-5.3-29.7-2.1c8.1,0,16.2-1.1,24.3-3.2
				c-9.5,1.1-17.6,3.2-25.7,6.4c4.1-1.1,6.8-2.1,10.8-3.2c-5.4-1.1-6.8,1.1-12.2,2.1"/>
		</g>
		<g>
			<path class="st10" d="M896.1,771.1c-2.7-2.1-2.7-4.3-6.8-5.3c-5.4,6.4-2.7,11.7,5.4,14.9c0-5.3-2.7-8.5-6.8-11.7
				c0,5.3,4.1,9.6,10.8,12.8c1.4-6.4-2.7-11.7-9.5-14.9c-1.4,5.3,1.4,9.6,8.1,12.8c-1.3-3.2-1.3-5.3-2.7-8.5c-5.4,2.1,0,2.1,0,4.3"
				/>
		</g>
		<g>
			<path class="st10" d="M901.5,772.2c0-1.1,17.6-7.5,23-11.7c-41.9,0-10.8,27.7-2.7,5.3c-8.1-2.1-16.2,1.1-21.6,6.4
				c8.1,0,14.9-3.2,20.3-7.5c-8.1-1.1-16.2,3.2-21.6,8.5c5.4-2.1,9.5-3.2,14.9-6.4c-2.7,0-4.1,1.1-5.4,2.1"/>
		</g>
		<path class="st11" d="M969.9,668.2c-21.4,15.2-28.8,35.9-29.7,57.5c-0.7-7.7-1.1-15.4-0.9-23.3c0.2-7.6,0.5-15.1,3.5-22.3
			c2.7-6.5,6.3-11.9,7.2-18.7c0.3-2.4-5.8-1.7-6.1,0.4c-0.9,7.6-5.4,14.3-8.3,21.5c-2,4.9-1.8,10.5-2.1,15.6
			c-0.4,6.4-0.4,12.8-0.1,19.1c-1.4-1-6,0.1-5.6,1.8c2.6,12.4,4,25,5.6,37.5c-3-17.7-15.3-34-21.5-51.2c-0.4-1.2-0.8-2.3-1.2-3.5
			c-7.4-25.8-9-52.1-7.9-78.9c0-0.6-6,0-6,1.3c-0.2,3.9-0.2,7.7-0.3,11.6c-0.2-3.6-0.4-7.1-0.5-10.7c0-1.3-6-0.4-6,1.3
			c0.3,24.7,6.1,48.6,13.5,72.5c0.2,0.6,0.4,1.2,0.6,1.8c2.1,7.9,4.8,15.8,8,23.7c5,12.1,10.7,24.2,15.7,36.4
			c0.2,1.6,0.2,3.2,0.2,4.9c-2-2.7-4.1-5.3-6.1-7.9c-6-7.5-10-19.3-19.1-25.5c-0.6-1.1-1.3-2.2-1.9-3.4c-3.5-6.9-7.4-14.4-15.1-19.1
			c-2-1.2-7.3,1-4.7,2.6c6.7,4.1,10.4,10.6,13.5,16.9c-2,0.4-4.3,1.5-2.8,1.9c1.8,0.6,3.4,1.4,4.9,2.3c0.4,0.8,0.8,1.6,1.2,2.4
			c3.6,7.1,7.9,13.5,12.5,20.2c7.9,11.6,16,23.4,20.7,36c3.1,8.4,3.7,17.2,3.7,26.1c-0.1,0.2-0.2,0.4-0.2,0.7v14.9
			c0,2,4.1,1.8,5.5,0.5c0,0.5-0.1,1.1-0.1,1.6c-0.2,2.4,6,1.7,6.1-0.4c1.1-15.9,3.1-31.7,3.1-47.6c0-6.5-0.7-13.1-1.8-19.6
			c1.8-0.2,4.2-0.9,4-1.5c-7.8-33.7-11.4-74.7,24-99.8C976.5,666.9,971,667.5,969.9,668.2z"/>
		<g>
			<path class="st10" d="M906.6,600.5c1.4-1.1-13.5,8.5-16.2,12.8c4.1-5.3,10.8-10.7,16.2-13.9c-8.1,4.3-14.9,11.7-17.6,19.2
				c6.8-6.4,40.5-12.8,21.6-22.4c-5.4,4.3-9.5,9.6-13.5,13.9c2.7-4.3,6.8-6.4,10.8-9.6c-1.4,2.1-2.7,5.3-4.1,7.5
				c2.7-2.1,5.4-3.2,6.8-6.4c0,1.1-1.4,1.1-2.7,2.1c0-1.1,2.7-3.2,2.7-3.2c1.4,1.1,0,4.3,0,5.3c1.4-2.1,1.4-4.3,2.7-6.4
				c0,3.2-4.1,8.5-1.4,4.3"/>
		</g>
		<g>
			<path class="st10" d="M914.7,610.1c-1.3-2.1-1.3-3.2-2.7-3.2c-2.7,7.5-5.4,17.1,1.4,23.5c8.1-4.3,6.8-18.1,4.1-24.5
				c-2.7,5.3-2.7,11.7-2.7,17.1c1.4-5.3,1.4-10.7,1.4-16c-1.4,6.4-1.4,13.9-1.4,20.3c0-5.3,0-9.6,0-13.9c0,1.1,0,10.7,0,8.5"/>
		</g>
		<g>
			<path class="st10" d="M921.5,597.3c-1.4,2.1,0,3.2-1.4,5.3c9.5,6.4,24.3,7.5,36.5,9.6c-4.1-9.6-21.6-10.7-32.4-13.9
				c5.4,5.3,13.5,8.5,23,10.7c-5.4-5.3-13.5-7.5-21.6-6.4c6.8,2.1,13.5,4.3,18.9,5.3c-1.3-1.1-4.1-3.2-6.8-4.3"/>
		</g>
		<g>
			<path class="st10" d="M916.1,589.8c6.8-1.1,16.2,2.1,23,2.1c-8.1-2.1-10.8-2.1-17.6,1.1c8.1,2.1,10.8,2.1,17.6-1.1
				c-9.5-2.1-18.9,0-25.7,4.3c8.1,1.1,16.2,1.1,24.3-2.1c-8.1-2.1-12.2-2.1-18.9,1.1c5.4,0,9.5-2.1,14.9-3.2
				c-8.1-3.2-14.9-2.1-20.3,2.1c4.1,1.1,9.5,1.1,12.2,0"/>
		</g>
		<g>
			<path class="st10" d="M910.7,585.6c4.1-1.1,8.1-2.1,13.5-2.1c-8.1-1.1-17.6,0-21.6,5.3c6.8,5.3,16.2,5.3,23,2.1
				c-8.1-1.1-17.6,0-25.7,3.2c8.1-1.1,16.2-2.1,23-4.3c-6.8-1.1-13.5-1.1-20.3,0c6.8,0,13.5-2.1,18.9-4.3c-8.1-1.1-8.1,0-14.9,2.1
				c4.1,1.1,5.4,0,8.1,0"/>
		</g>
		<g>
			<path class="st10" d="M930.9,582.4c5.4,5.3,17.6,6.4,25.7,4.3c-6.8-6.4-18.9-5.3-29.7-2.1c8.1,0,16.2-1.1,24.3-3.2
				c-9.5,1.1-17.6,3.2-25.7,6.4c4.1-1.1,6.8-2.1,10.8-3.2c-5.4-1.1-6.8,1.1-12.2,2.1"/>
		</g>
		<g>
			<path class="st10" d="M928.2,576c-2.7-2.1-2.7-4.3-6.8-5.3c-5.4,6.4-2.7,11.7,5.4,14.9c0-5.3-2.7-8.5-6.8-11.7
				c0,5.3,4.1,9.6,10.8,12.8c1.4-6.4-2.7-11.7-9.5-14.9c-1.4,5.3,1.4,9.6,8.1,12.8c-1.3-3.2-1.3-5.3-2.7-8.5c-5.4,2.1,0,2.1,0,4.3"
				/>
		</g>
		<g>
			<path class="st10" d="M972,691.4c1.4-1.1-13.5,8.5-16.2,12.8c4.1-5.3,10.8-10.7,16.2-13.9c-8.1,4.3-14.9,11.7-17.6,19.2
				c6.8-6.4,40.5-12.8,21.6-22.4c-5.4,4.3-9.5,9.6-13.5,13.9c2.7-4.3,6.8-6.4,10.8-9.6c-1.4,2.1-2.7,5.3-4.1,7.5
				c2.7-2.1,5.4-3.2,6.8-6.4c0,1.1-1.4,1.1-2.7,2.1c0-1.1,2.7-3.2,2.7-3.2c1.4,1.1,0,4.3,0,5.3c1.4-2.1,1.4-4.3,2.7-6.4
				c0,3.2-4.1,8.5-1.4,4.3"/>
		</g>
		<g>
			<path class="st10" d="M980.2,701c-1.3-2.1-1.3-3.2-2.7-3.2c-2.7,7.5-5.4,17.1,1.4,23.4c8.1-4.3,6.8-18.1,4.1-24.5
				c-2.7,5.3-2.7,11.7-2.7,17.1c1.4-5.3,1.4-10.7,1.4-16c-1.4,6.4-1.4,13.9-1.4,20.3c0-5.3,0-9.6,0-13.9c0,1.1,0,10.7,0,8.5"/>
		</g>
		<g>
			<path class="st10" d="M986.9,688.2c-1.3,2.1,0,3.2-1.3,5.3c9.5,6.4,24.3,7.5,36.5,9.6c-4.1-9.6-21.6-10.7-32.4-13.9
				c5.4,5.3,13.5,8.5,23,10.7c-5.4-5.3-13.5-7.5-21.6-6.4c6.8,2.1,13.5,4.3,18.9,5.3c-1.3-1.1-4.1-3.2-6.8-4.3"/>
		</g>
		<g>
			<path class="st10" d="M933.6,577c0-1.1,17.6-7.5,23-11.7c-41.9,0-10.8,27.7-2.7,5.3c-8.1-2.1-16.2,1.1-21.6,6.4
				c8.1,0,14.9-3.2,20.3-7.5c-8.1-1.1-16.2,3.2-21.6,8.5c5.4-2.1,9.5-3.2,14.9-6.4c-2.7,0-4.1,1.1-5.4,2.1"/>
		</g>
		<g>
			<path class="st10" d="M981.5,680.8c6.8-1.1,16.2,2.1,23,2.1c-8.1-2.1-10.8-2.1-17.6,1.1c8.1,2.1,10.8,2.1,17.6-1.1
				c-9.5-2.1-18.9,0-25.7,4.3c8.1,1.1,16.2,1.1,24.3-2.1c-8.1-2.1-12.2-2.1-18.9,1.1c5.4,0,9.5-2.1,14.9-3.2
				c-8.1-3.2-14.9-2.1-20.3,2.1c4.1,1.1,9.5,1.1,12.2,0"/>
		</g>
		<g>
			<path class="st10" d="M976.1,676.5c4.1-1.1,8.1-2.1,13.5-2.1c-8.1-1.1-17.6,0-21.6,5.3c6.8,5.3,16.2,5.3,23,2.1
				c-8.1-1.1-17.6,0-25.7,3.2c8.1-1.1,16.2-2.1,23-4.3c-6.8-1.1-13.5-1.1-20.3,0c6.8,0,13.5-2.1,18.9-4.3c-8.1-1.1-8.1,0-14.9,2.1
				c4.1,1.1,5.4,0,8.1,0"/>
		</g>
		<g>
			<path class="st10" d="M996.4,673.3c5.4,5.3,17.6,6.4,25.7,4.3c-6.8-6.4-18.9-5.3-29.7-2.1c8.1,0,16.2-1.1,24.3-3.2
				c-9.5,1.1-17.6,3.2-25.7,6.4c4.1-1.1,6.8-2.1,10.8-3.2c-5.4-1.1-6.8,1.1-12.2,2.1"/>
		</g>
		<g>
			<path class="st10" d="M993.7,666.9c-2.7-2.1-2.7-4.3-6.8-5.3c-5.4,6.4-2.7,11.7,5.4,14.9c0-5.3-2.7-8.5-6.8-11.7
				c0,5.3,4.1,9.6,10.8,12.8c1.4-6.4-2.7-11.7-9.5-14.9c-1.3,5.3,1.4,9.6,8.1,12.8c-1.3-3.2-1.3-5.3-2.7-8.5c-5.4,2.1,0,2.1,0,4.3"
				/>
		</g>
		<g>
			<path class="st10" d="M999.1,668c0-1.1,17.6-7.5,23-11.7c-41.9,0-10.8,27.7-2.7,5.3c-8.1-2.1-16.2,1.1-21.6,6.4
				c8.1,0,14.9-3.2,20.3-7.5c-8.1-1.1-16.2,3.2-21.6,8.5c5.4-2.1,9.5-3.2,14.9-6.4c-2.7,0-4.1,1.1-5.4,2.1"/>
		</g>
		<g>
			<path class="st10" d="M1002.7,659.5c-1.4-1.1,10.9,10.6,16.3,12.7c-6.8-3.2-13.6-8.5-17.7-12.7c5.5,6.4,14.9,11.7,24.4,13.8
				c-8.1-5.3-16.4-31.9-28.5-16.9c5.4,4.2,12.2,7.4,17.6,10.6c-5.4-2.1-8.1-5.3-12.2-8.5c2.7,1.1,6.8,2.1,9.5,3.2
				c-2.7-2.1-4.1-4.2-8.1-5.3c1.4,0,1.4,1.1,2.7,2.1c-1.4,0-4.1-2.1-4.1-2.1c1.3-1.1,5.4,0,6.8,0c-2.7-1.1-5.4-1-8.1-2.1
				c4.1,0,10.8,3.1,5.4,1"/>
		</g>
		<g>
			<path class="st10" d="M1014.8,653.1c-2.7,1.1-4,1.1-4,2.1c9.5,2.1,21.7,4.2,29.7-1.2c-5.5-6.4-23-5.2-31.1-3.1
				c6.8,2.1,14.9,2.1,21.6,2c-6.8-1-13.5-1-20.3-1c8.1,1,17.6,1,25.7,1c-6.8,0-12.2,0.1-17.6,0.1c1.4,0,13.5-0.1,10.8,0"/>
		</g>
		<g>
			<path class="st10" d="M998.6,647.8c2.7,1.1,4.1,0,6.8,1c8.1-7.5,9.3-19.2,12-28.8c-12.1,3.3-13.4,17.1-17.4,25.7
				c6.7-4.3,10.7-10.7,13.4-18.2c-6.7,4.3-9.4,10.7-8,17.1c2.7-5.3,5.3-10.7,6.7-15c-1.3,1.1-4,3.2-5.4,5.4"/>
		</g>
		<g>
			<path class="st10" d="M989.2,652.1c-1.4-5.3,2.6-12.8,2.6-18.1c-2.7,6.4-2.6,8.5,1.4,13.9c2.7-6.4,2.6-8.5-1.4-13.9
				c-2.7,7.5,0.1,14.9,5.5,20.2c1.3-6.4,1.3-12.8-2.8-19.2c-2.7,6.4-2.6,9.6,1.5,14.9c0-4.3-2.8-7.5-4.1-11.7
				c-4,6.4-2.6,11.7,2.8,16c1.3-3.2,1.3-7.5-0.1-9.6"/>
		</g>
		<g>
			<path class="st10" d="M983.8,656.4c-1.4-3.2-2.8-6.4-2.8-10.6c-1.3,6.4,0.1,13.9,6.9,17c6.7-5.4,6.7-12.8,2.6-18.1
				c-1.3,6.4,0.1,13.9,4.2,20.2c-1.4-6.4-2.8-12.8-5.5-18.1c-1.3,5.3-1.3,10.7,0.1,16c0-5.3-2.8-10.6-5.5-14.9
				c-1.3,6.4,0,6.4,2.8,11.7c1.3-3.2,0-4.3,0-6.4"/>
		</g>
		<g>
			<path class="st10" d="M979.6,640.4c6.7-4.3,8-13.9,5.3-20.3c-8.1,5.4-6.7,15-2.5,23.5c0-6.4-1.4-12.8-4.2-19.2
				c1.4,7.5,4.2,13.8,8.3,20.2c-1.4-3.2-2.7-5.3-4.1-8.5c-1.3,4.3,1.4,5.3,2.8,9.6"/>
		</g>
		<g>
			<path class="st10" d="M971.5,642.6c-2.7,2.1-5.4,2.2-6.7,5.4c8.1,4.2,14.9,2.1,18.9-4.3c-6.8,0-10.8,2.2-14.8,5.4
				c6.8,0,12.1-3.3,16.2-8.6c-8.1-1-14.9,2.2-18.9,7.5c6.8,1,12.2-1.1,16.2-6.5c-4,1.1-6.8,1.1-10.8,2.2c2.7,4.3,2.7,0,5.4,0"/>
		</g>
		<g>
			<path class="st10" d="M972.8,638.3c-1.4,0-9.6-13.8-15-18.1c0.2,33,35.2,8.4,6.8,2.1c-2.7,6.4,1.4,12.8,8.2,17
				c0-6.4-4.1-11.7-9.6-15.9c-1.3,6.4,4.1,12.8,10.9,17c-2.7-4.3-4.1-7.4-8.2-11.7c0,2.1,1.4,3.2,2.7,4.3"/>
		</g>
		<g>
			<path class="st10" d="M834.3,709.2c1.9-0.1-17.3-0.6-22.9,1.2c7.5-1.9,17-2.4,23.8-2c-9.7-1-21,1.1-29.2,5.3
				c10.4-1.3,41.2,11.4,35-5.6c-7.6,0.4-15.1,2.3-21.7,3.4c5.6-1.8,10.4-1.3,16.1-1.6c-2.8,0.9-6.5,2.6-9.3,3.5
				c3.8-0.2,6.7,0.4,10.4-1.3c-0.9,0.8-1.9,0.1-3.8,0.2c0.9-0.8,4.7-1,4.7-1c0.1,1.5-3.6,3.2-4.4,4c2.8-0.9,4.6-2.5,7.4-3.4
				c-2.7,2.4-10.2,4.3-4.6,2.5"/>
		</g>
		<g>
			<path class="st10" d="M832.4,720.6c0.8-2.3,1.7-3.1,0.6-3.8c-8.3,4.2-18.3,10-18.6,18.4c9.7,1,20.2-10.1,23.5-16.4
				c-6.5,2.6-11.8,7.4-16.3,11.4c5.5-3.3,9.9-7.3,14.4-11.3c-6.4,4.1-12.6,9.7-17.9,14.5c4.4-4,8-7.2,11.6-10.4
				c-0.9,0.8-8.9,8-7.1,6.4"/>
		</g>
		<g>
			<path class="st10" d="M848.1,714.5c-2.8,0.9-2.7,2.4-5.5,3.3c1.8,9.7,12.1,18.2,19.5,26.2c5-9.3-7.4-19.2-12.8-27.3
				c-0.4,6.8,3.1,13.4,8.4,20c0.4-6.8-3.9-12.6-10.9-16c3.3,5.1,6.6,10.2,9.8,13.8c-0.1-1.5-0.4-4.5-1.5-6.7"/>
		</g>
		<g>
			<path class="st10" d="M850.3,706c6,2.7,10.4,10,15.5,13.5c-4.3-5.8-6.4-7.2-14.1-8.3c4.3,5.8,6.4,7.2,14.1,8.3
				c-5.3-6.5-14.2-9.8-22.9-10.1c5.2,5,11.3,9.2,20.1,11c-4.3-5.8-7.4-7.9-15.1-9c4.1,2.8,8.9,3.3,13.9,5.3c-3.4-6.6-9.4-9.3-17-8.9
				c2.2,2.9,6.2,5.7,9.2,6.3"/>
		</g>
		<g>
			<path class="st10" d="M849.8,700c3.9,1.3,7.9,2.6,12,5.4c-5.2-5-13.2-9.1-20.7-7.2c0.6,7.5,7.8,12.4,15.5,13.5
				c-5.2-5-13.2-9.1-22-10.9c7,3.4,14,6.8,20.9,8.7c-4.2-4.3-9.3-7.8-15.3-10.5c5.1,3.5,12,5.4,17.8,6.6c-5.2-5-6.1-4.2-13-6.1
				c2.2,2.9,4.1,2.8,6.1,4.2"/>
		</g>
		<g>
			<path class="st10" d="M867.7,708.1c-0.4,6.8,7.9,13.9,15.8,16.5c0.2-8.3-9.8-13.8-20.6-17c6.1,4.2,13.1,7.6,21,10.2
				c-8-4.1-15.9-6.7-24.7-8.5c3.9,1.3,6.9,1.9,10.8,3.2c-3.2-3.6-6-2.7-10.9-4.7"/>
		</g>
		<g>
			<path class="st10" d="M871,701.9c-0.3-3,1.5-4.6-0.6-7.5c-9.4,2-11.8,7.4-8.4,14c4.5-4,5.1-7.8,4.7-12.3c-4.5,4-5,9.3-2.5,15.2
				c6.4-4.1,7.7-10.2,5.3-16.1c-5.5,3.3-7,7.9-4.6,13.8c1.7-3.1,3.4-4.7,5.1-7.8c-5.8-1.2-1.8,1.6-3.6,3.2"/>
		</g>
		<g>
			<path class="st10" d="M874.2,705.5c0.9-0.8,19.4,3.5,27.1,3.1c-31.5-21.8-31.3,15.2-6.5,2.6c-4.3-5.8-13.1-7.6-21.6-6.4
				c6.1,4.2,13.9,5.3,21.5,4.9c-5.2-5-14.9-6-23.4-4.8c5.8,1.2,9.8,2.5,16.5,2.9c-2-1.4-3.9-1.3-5.9-1.2"/>
		</g>
	</g>
	<path class="st12" d="M967.6,677c0-0.5-0.4-1-1.8-1.1c-6.6-0.6-13.6,1.8-17.2,6.3c-3.3,4.2-2.7,8.5,0.8,12.5
		c2.2,2.5,5.2,3.9,8.5,4.2c0.5,1.2,3.1,0.7,4.7-0.1c2.1-0.3,4.1-0.9,6-1.8c5.4-2.5,10-7.9,9.5-12.9
		C977.7,679.4,972.8,677.6,967.6,677z"/>
	<path class="st12" d="M889.6,714.1c-1.6-1-3.5-1.7-5.5-2c-0.4-0.4-0.8-0.7-1.1-1.1c-0.9-1.1-6.5,0.7-6,1.3c0,0,0,0,0,0
		c-4.6,1.1-8.2,4.1-7.7,8.7c0.2,1.8,1.1,3.1,2.5,3.9c1.5,2.5,5.3,3.4,9,3.1c4.8-0.4,11.4-2.2,13.2-6.1
		C895.4,718.9,892.4,715.8,889.6,714.1z M881,725.6c2.8-0.6,5.5-1.9,7.1-3.5c-0.1,0.4-0.2,0.8-0.4,1.1
		C886.5,725.5,883.5,726.2,881,725.6z"/>
	<path class="st12" d="M912.5,724.8c-1-2.5-3.5-4.9-6.8-5.3c-3.8-0.6-8.5,0.7-10.8,3.2c-0.7,0.6-1.2,1.3-1.4,2.2
		c-0.7,3,0.9,6.7,4.3,8.3c3.6,1.7,9.7,0.8,12.8-1.2C913.3,730.2,913.5,727.3,912.5,724.8z"/>
	<path class="st12" d="M987.6,726.9c-1.8-2.8-6.1-4.7-10.7-5.5c0.6-0.5,0.6-1-0.8-1.2c-13.2-2.3-23,10.2-12.6,17.8
		C973.3,745.2,994.8,738.3,987.6,726.9z"/>
	<path class="st12" d="M1024.8,668c-1.4-2.4-4.1-3.7-7.2-4.4c-0.1-0.1-0.2-0.2-0.4-0.2c-6.7-2.6-13.7-0.5-17.7,4.3
		c-3.8,4.6-1.2,10.8,4.8,13.2C1013.6,684.7,1030.1,676.8,1024.8,668z"/>
	<path class="st12" d="M897.9,652.6c-0.3,0-0.5,0-0.7,0c-0.4,0-0.9-0.1-1.3-0.1c-0.1,0-0.1,0-0.2,0c-8.5,0.1-12.9,8.3-10,14.4
		c1.8,3.8,6.6,4.4,11.2,3.7c5.6-0.9,9.8-4.5,9.5-9.1C906.1,657.5,903.2,653.3,897.9,652.6z"/>
	<path class="st13" d="M1008.5,568.9c-27.8-9.2-61.5-8.6-90.9-6.8c-34.2,2.1-66.4,7.2-98.7,16.2c-7.6,2.1-19.4,5.4-21.7,12.7
		c-2.4,7.6,2.9,12.3,12,14c4.9,3.1,10.9,4.6,17.6,5.6c1.5,8.6,2.8,17.3,3.8,26c-0.7,0.1-1.1,0.4-0.6,0.8c0.3,0.2,0.5,0.4,0.8,0.5
		c2.9,23.9,4.5,47.8,7.5,71.9c1.5,12.1,3.6,24.1,5.8,36.1c-0.7,0.1-1.1,0.4-0.6,0.7c0.3,0.1,0.5,0.3,0.8,0.4
		c1.8,9.2,3.6,18.5,5.5,27.7c1.8,9.1,3.9,18.2,5.2,27.3c0.6,3.9-0.2,10.3,2.4,13.8c1.1,1.5,6.9-0.1,6-1.3c-2.6-3.4-1.9-9.9-2.4-13.8
		c-0.4-3.3-1-6.5-1.6-9.8c6,4.9,15.2,7.6,23,9.8c7.4,2,15.2,3.7,23,5.1c1.3,12.4,3.5,24.7,4.1,37.1c0.1,1.8,6.1,0.8,6-1.3
		c-0.6-11.6-2.3-23.1-3.6-34.7c4.7,0.8,9.4,1.5,14.1,2.1c16.8,2.1,39.5,2.3,57.6-3.2c-0.1,4.6-0.2,9.2-0.2,13.7c0,0,0,0,0,0v0.8
		c0,2.4,6.1,1.5,6.1-0.4c0-5.4,0.1-10.9,0.2-16.3c4.7-1.9,8.9-4.3,12.4-7.2v32.2c0,2.3,6.1,1.4,6.1-0.5v-58.3c0-2.3-6.1-1.4-6.1,0.5
		v18.2c-0.6,0.2-0.9,0.5-0.2,0.9c0.1,0,0.1,0.1,0.2,0.1v4.2c-2.7,2.9-8.9,6.1-11,7.1c-0.4,0.2-0.9,0.4-1.4,0.6
		c0.5-17.2,1.4-34.5,2.6-51.7c4.9-2.1,15.9-7.3,9.8-10.6c-0.9-0.5-3.7,0.1-2.2,0.9c3,1.6-2,4.8-7.4,7.5c1.3-18.5,2.8-37,4.2-55.6
		c5.2-2.5,10-5.5,14-9.5c0.4-0.4,0-0.8-0.6-0.9c-2.6-0.6-4.7-0.2-7.5-0.1c-1.8,0.1-1,1.3,0.4,1.3c4-0.2,3.8,0.2,1.1,2.5
		c-2.2,1.8-4.7,3.3-7.3,4.6c1-13.2,1.9-26.3,2.6-39.5c4.3-1.4,8.4-3.5,10.7-6.3c4.5-5.6,4.2-12.3,5.9-18.6c0.1-0.2-0.3-0.4-0.5-0.5
		c-1.4-0.6-2.8-1-4.2-1.6c-0.9-0.4-3.8,0.2-2.2,0.9c5.5,2.6,2.1,10.7,0.7,14.9c-1.5,4.4-5.5,7.3-10.4,9.3
		c0.7-14.4,1.3-28.7,1.3-43.1c2.2-0.5,4.5-1.2,6.8-1.8c-0.6,2.5-1.4,5.1-2.4,7.4c-0.7,1.8,5.3,1.1,6-0.5c1.2-2.9,2.1-5.9,2.8-9
		c6.6-2.5,12.5-5.7,16-10.3C1038.1,580.6,1017.5,571.9,1008.5,568.9z M809,597.8c-0.7-0.9-3.4-0.5-4.8,0.3c-2.2-2.6-2.1-6.1,0.7-10
		c2.9-4.1,9.2-6.2,15.3-7.7c2.5,9,4.5,18,6.1,27C819.1,605.6,812.9,602.8,809,597.8z M833.2,611.3c13.9,1.5,28.3,2,42.2,3.4
		c10.4,1,20.7,1.6,31,1.8c-0.3,13.5,0.4,26.9,1.1,40.4c-9.7-1-19.3-2.3-28.6-3.7c-8.8-1.3-17.4-3.1-25.9-5.2
		c-6.5-1.7-11.2-4.8-15.9-8.2C836,630.2,834.8,620.7,833.2,611.3z M891.2,801.2c-10.9-2.4-26.7-6.1-32.6-14.7
		c-0.9-4.4-1.9-8.8-2.8-13.2c-1.5-7.5-3-14.9-4.4-22.4c4.7,2.7,9.5,5.4,14.8,7.4c8.6,3.3,19.3,4.2,28.7,5.2c3.3,0.4,6.6,0.6,9.9,0.8
		c-0.3,9.4-0.4,18.7-0.3,28.1c0.1,3.9,0.3,7.8,0.7,11.6C900.6,803.2,895.9,802.2,891.2,801.2z M906.4,733c-0.6,10-1.1,20-1.5,30
		c-3-0.2-6.1-0.4-9.1-0.7c-9.2-0.9-18.8-2.1-27.3-4.9c-6.4-2.1-11.9-5.6-17.5-8.9c-2.5-13.3-4.9-26.7-6.7-40.1
		c-0.6-4.9-1.2-9.7-1.8-14.6c19.3,10.6,42.6,10.4,65.5,9.2C907.7,713,907,723,906.4,733z M908.2,701.8c-23.2,1.2-46.8,1.3-65.8-10.4
		c-1.8-16.3-3.1-32.7-4.9-48.9c2.8,1.9,5.6,3.6,9,5c7.8,3.2,17.7,4.6,26.3,6c11.4,1.9,23.1,3.6,34.9,4.6c0.2,4,0.4,8,0.6,12
		C908.7,680.7,908.6,691.2,908.2,701.8z M983.7,803.6c-4.5,1.4-9.2,2.5-13.9,3.3c-14,2.4-28.8,2.4-42.9,0.7c-5-0.6-10-1.4-15.1-2.3
		c-0.6-5.9-1.1-11.9-1.2-17.9c-0.1-7.6,0-15.2,0.3-22.8c15.1,0.5,30.3-0.5,45-3.2c10.5-1.9,20.7-5.3,30.3-9.2
		C985,769.4,984.1,786.5,983.7,803.6z M986.3,750.3c-1.6,0.7-2.9,1.2-3.4,1.4c-9.2,3.7-18.6,6.5-28.6,8.6c-14.1,2.9-28.8,3.6-43.4,3
		c0.4-11.8,1.1-23.6,1.8-35.3c0.5-8.4,0.7-16.9,0.8-25.3c5.6-0.3,11.1-0.6,16.6-0.8c19.3-0.6,42.1-0.9,60.4-7.4
		C989.1,713.1,987.6,731.7,986.3,750.3z M990.6,692.7c-4.8,1.8-9.9,3.1-15,4.1c-14.2,2.9-29.1,3.2-43.6,3.7
		c-6,0.2-12.2,0.6-18.4,0.9c0.1-14.3-0.4-28.6-0.7-42.9c7.7,0.6,15.3,0.9,22.9,0.7c10-0.2,19.9-1.5,29.7-2.9
		c9.1-1.4,18.3-2.5,27.3-4.2c0.2,0,0.5-0.1,0.7-0.1C992.6,665.6,991.7,679.1,990.6,692.7z M987.2,651.7c-17.8,3-36.2,6-54.4,6.3
		c-6.6,0.1-13.3-0.2-20-0.7c-0.3-13.6-0.6-27.2-0.3-40.8c9.3,0,18.6-0.4,27.9-1.3c18.3-1.7,36.6-4.4,54.3-8.4c0.1,0,0.2,0,0.2-0.1
		c-0.1,14.6-0.6,29.1-1.4,43.7C991.3,650.9,989.2,651.4,987.2,651.7z M1008.4,600.4c-3,1.1-6.1,2.1-9.2,3c-1.4-0.2-3.4,0.3-4.1,1.1
		c-20.5,5.4-43.2,7.4-64.1,9c-6.2,0.5-12.4,0.6-18.6,0.5c0-0.1,0-0.2,0-0.3c0.1-2.1-5.2-1.4-5.9,0.2c-12.9-0.4-25.8-1.6-38.6-2.9
		c-10.2-1.1-23.5-0.7-35.3-2.4c-1.7-9.9-3.8-19.8-6.6-29.6c0.5-0.1,1-0.2,1.4-0.3c15-3.8,29.1-7.5,44.7-9.6
		c28.2-3.9,57.7-6.2,86.3-4.8c15.4,0.8,34.5,2.3,49.4,8.3c-0.4,0.3-0.6,0.7-0.5,1.1C1009.6,582,1010.1,591.4,1008.4,600.4z
		 M1014.8,597.8c1.1-7.5,0.8-15.2-0.7-22.5c2.8,1.5,5.5,3.3,7.8,5.2C1030.2,587.8,1023,593.9,1014.8,597.8z"/>
</g>
<g id="water_x5F_arm">
	<g id="cup">
		<path class="st14" d="M414.8,291.4c-19.6,4.2-38,8.8-38.9,28.4c-0.7,15.9,5.9,38.1,23.7,45.6c10.9,4.6,23.6,2.8,35.5,1.8
			c17.2-1.4,34.3-2.9,51.5-4.3c1.5-0.1,2.5-0.7,3.2-1.4c0.1,0,0.2,0.1,0.4,0.1c6.3,0.8,7.7-7.5,1.5-8.3c-23.5-3.1-18.1-49.5-10.9-60
			c1.8,0.3,4-0.6,5.3-2c4.7-0.7,7.8-6.2,2.5-7.2c-1.9-0.4-4.6-1.1-6.3-0.9c-3.9-1-9.4-0.1-13.3,0.2
			C450.7,284.9,432.6,287.5,414.8,291.4z"/>
		<path class="st15" d="M475.2,286c-6.2,7.8-4.4,19-4,27.5c0.4,9.7-0.2,21.2,5.3,29.7c3.4,5.1,9.6,14.4,16.1,14.5
			c1.1,0.7,2.7,0.9,4.1-0.2c15.8-12.3,8.9-43.6,3.9-58C497.5,291.1,487.4,270.5,475.2,286z M495.5,305.6c1.1,4,1.8,8.1,2.3,12.3
			c0.9,7.4,3.2,22-1.6,31c-0.6,0.2-1.2,0.5-1.6,1.2c-4.7,6.9-6.4-2.3-8.9-6.2c-2.9-4.6-5.7-9.1-6.7-14.5c-1.6-8.2-4.3-22.6-1.4-30.8
			C484.6,278.8,494.3,301.2,495.5,305.6z"/>
		<path id="water" fill="#29ABE2" d="M384.5,341.4c1.5,6.8,3.8,13.5,9.3,18.1c5.1,4.4,11.8,6.5,18.4,7.1c17.1,1.6,34.3-4.4,51.1-6.6
			c8.3-1.1,16.7-0.9,24.9-2.5c3.7-0.7,10-1.9,11.6-5.9c0.3-0.1,0.6-0.2,1-0.4c1-0.5,0.4-2-0.6-1.9c0,0,0-0.1,0-0.1
			c-0.1-1.3-2.1-1.4-2-0.1c0,0.3,0,0.6-0.1,0.9c-4.6,1.1-8.7-2-8.7-7.1c0-0.8-0.7-1.2-1.4-1c-5,1.8-10.1-0.5-12.3-5.2
			c-0.2-0.5-0.9-0.6-1.3-0.4c-6.5,2.5-13.8-0.3-17.1-6.4c-0.4-0.8-1.6-0.7-1.8,0.1c-2.1,6-12-2.9-13.3-4.8c-0.5-0.7-1.8-0.2-1.7,0.6
			c-2.2,2.4-4.4,2.7-6.6,0.9c-1.8-0.9-3-2.3-3.7-4.4c-0.2-0.8-1-1-1.6-0.5c-4.5,3.3-10.1-2.9-12-6.4c-0.2-0.4-0.9-0.7-1.3-0.4
			c-3.4,2.4-6.2,0.9-8.5-4.4c0-0.6-0.5-1.2-1.2-1c-4.7,1.4-7.3-2.7-8.7-6.3c-0.1-0.4-0.7-0.6-1.1-0.5c-1.4,0.6-2.8,0.6-4.1,0.1
			c0.3-0.7-0.1-1.7-1-1.4l-1.3,0.4c-0.4,0.1-0.7,0.5-0.8,0.8c-4.4,1.3-5,11.6-5.4,15.2C382.2,325.6,382.8,333.7,384.5,341.4z"/>
		<path class="st15" d="M389.6,299.7c-23.7,11.4-14.1,53.2,3.3,65.3c12.3,8.6,34.2,2.8,52.1,0.8c16.1-1.7,42.8-4.8,51.8-8.8
			c0.4-0.2,0.5-0.5,0.7-0.8c8.2-6.6,5.7-21.8,5.9-29.8c0.3-13.7-0.5-28.4-10.9-39.4c-9.9-10.4-25.9-4.9-39.5-2.1
			C431.5,289.5,408.2,290.8,389.6,299.7z"/>
	</g>
	<g id="arm">
		<path class="st5" d="M476,364.1c-0.7-0.2-1.5-0.2-2.3,0c-0.1-0.1-0.3-0.2-0.5-0.2c-4.7-2-6.1-5.3-6.2-10.2c0-3.7-0.5-7.2-3.5-9.9
			c-3.3-3-8.2-0.8-8.5,3.5c-0.2,2.3-0.6,4.5-1.3,6.7c-0.2,0.7-0.6,1.3-0.9,2c-0.8-1.5-2.3-3.2-2.8-4.6c-0.7-2.3-0.8-4.6-0.6-7
			c0.2-2.7-2.5-5-5-5c-7.4-0.1-9.8,8.4-10.5,16.2c-2-2.7-3-6.1-2.8-9.6c0.2-4.2-4.3-5.7-7.5-4.3c-3.7,1.6-4.7,5.3-5.1,8.9
			c-0.2,1.4-0.3,2.9-0.4,4.3c-0.9-1.3-1.7-2.6-2.6-4c-2.5-4-5.4-6.8-10.3-7c-2.7-0.1-5,2.4-5,5c0.1,18.6,9.6,35.8,25,46.1
			c1.2,0.8,2.4,1,3.5,0.7c3.3,3.4,8.5,6.2,10.9,7.9c3.3,2.4,6.6,4.9,10.8,5.2c3.6,0.3,7.5-0.9,10.9-2.1c7.5-2.8,14.5-6.5,16-14.9
			c0.7-3.9,1.9-9.7,0.7-14c0.4-2.6,0.8-5.1,1.2-7.7C479.9,367.6,478.8,364.9,476,364.1z"/>
		<g>
			<path class="st7" d="M620.2,554.1c-30.6-28.4-59-59.2-84.9-92c-14.6-18.5-28.4-37.6-41.4-57.3c-4.9-7.5-10.5-17.7-20.8-17.9
				c-5.2-0.1-10.6,2.3-15.5,3.8c-5.4,1.6-10.7,3.3-16.1,4.9c-3.1-1.9-8.6,0.8-7.7,5.6c1.8,9.8,7.3,18,13.3,25.7
				c7,8.9,14.2,17.7,21.2,26.5c14.8,18.4,29.5,36.8,44.3,55.2c14.6,18.1,29.1,36.3,43.7,54.4c12.6,15.7,25.6,30.3,44.2,38.8
				c13.1,6,39.1,16.2,45.5-3.5C652.3,578.9,632.3,565.4,620.2,554.1z"/>
			<path class="st6" d="M474.5,389.9c38.6,60.7,83.9,116.9,135.1,167.4c4.6,4.5,11.7-2.5,7.1-7.1c-52-51.2-97.8-108.4-136.6-170.2
				c-1.8-2.9-5.4-3.2-7.9-1c-10.3,9-24.4,12.9-37.9,10.3c-4.8-0.9-7.6,4.6-5.6,7.7c-1.1,1.1-1.6,2.7-0.9,4.6
				c12,33.5,36.3,60.7,58.5,88c24.2,29.8,48.8,59.2,75,87.2c13.5,14.5,27.2,31.9,46.4,38.9c6.1,2.2,8.7-7.5,2.7-9.6
				c-8.6-3.1-15.3-8.8-21.7-15.2c-6.2-6.2-12.3-12.6-18.3-19c-12.4-13.2-24.4-26.7-36.2-40.3c-23.4-27.2-46.7-54.8-68.3-83.5
				c-11.2-14.9-21.6-30.7-28-48.2C450.8,401,463.7,397.5,474.5,389.9z"/>
		</g>
	</g>
</g>
<g id="tree3">
	<path class="st17" d="M915.5,141.8c-0.6-2.1-3-4-2.9-6.2c0.1-1.8,1-2.6-0.4-4.3c-0.4-0.5-1.1-0.7-1.5-1.2c-0.9-0.9-1.1-0.2,0-1.7
		c1.2-1.7,2.2-3.9,3-5.8c1.7-3.9-1.6-7.7-2.5-11.4c-0.5-2.1-1.2-4.2-2.3-6c-0.6-0.9-1.2-1.6-2-2.3c-1.7-1.6-2.2-2.6-1.4-4.8
		c1.2-3.3,2.9-8.6,1.3-12c-1.1-2.3-3.1-3.9-3.8-6.4c-0.7-2.5-1-4.6-2.4-6.8c-2.6-4.3-4.7-8-8.9-10.7c-1.4-0.9-2.5-1.5-3-3.2
		c-0.4-1.3-0.2-2.9-0.4-4.3c-0.3-2.6-0.9-5-1.8-7.4c-0.8-2-1.8-3.9-3.3-5.4c-0.5-0.4-2.1-1.3-2.3-1.8c-0.5-1.2,0.8-1.3,1.3-2
		c2.5-2.8-1.7-6.1-3.1-8.1c-3-4.4-6.3-8.6-10.1-12.2c-1.3-1.2-2.6-2.5-4.2-3.2c-2.5-1-5-0.8-7.4-2.2c-2.2-1.2-4.5-1.9-6.9-2.6
		c-2.9-0.8-5.7-2-8.6-2.9c-2.3-0.7-4.8-1.3-7.3-1.5c-0.9-0.1-1.5,0.1-2.3,0.2c-1.5,0.1-2.8-0.4-4.3-0.5c-2.3-0.2-4.2,0.5-6.5,1.2
		c-3.2,0.9-6.6,1.2-10,1.4c-5,0.3-8.6,0.1-12.8,3.4c-1.5,1.2-2.8,2.4-3.7,4.1c-0.7,1.3-1.1,2.5-2.5,3.1c-1.3,0.6-3.2,0.8-4.5,1
		c-2.9,0.4-5.9,0.5-8.9,0.7c-2.2,0.1-4.8-0.1-6.9,0.8c-2.9,1.2-6.1,3.9-7,7.1c-0.5,1.6-0.7,3.6-0.4,5.2c0.3,1.5,1,2.2-0.1,3.3
		c-0.8,0.8-2.5,1.3-3.4,1.9c-3.4,2.2-6.2,5.2-6.5,9.6c-0.2,3.3,0.6,6.1-2.4,8.3c-2,1.5-4.5,2.1-6.5,3.6c-3.2,2.2-3,5.5-2.4,8.9
		c-2.7,1.9-5.1,3.2-6.2,6.9c-0.5,1.7-0.5,3.4,0,5.1c0.4,1.3,1.2,2.5,1.5,3.9c0.4,1.9-0.2,3.5-0.8,5.3c-0.7,2-1.2,3.8-1.6,5.9
		c-0.2,1.5-0.2,3-1,4.3c-0.6,1.1-1.6,1.9-2.4,2.8c-2.4,2.9-3.8,5.9-3.7,9.8c0,1.4,0.2,2.6-0.5,3.8c-0.4,0.7-1.1,1.3-1.6,2
		c-1.2,1.8-2.1,4.1-2.9,6.2c-1.7,4.6-2.4,9.4-2.3,14.3c0,2.2,0.6,3.9,1,6c0.4,2.3-0.5,4.4,0.1,6.7c0.6,2.7,1.3,5.2,1.5,8
		c0.2,2.3,0.4,4.7,1.2,6.9c1.5,4.4,3.7,8.5,5.7,12.7c0.7,1.5,1.6,3.2,3.1,4c1.5,0.7,3.1,0.3,4.7,0.2c0.4,2.2,1.8,4.1,4.1,4.8
		c1,0.3,2,0.2,3,0.3c1.6,0.3,2.8,1.1,4.2,2c1.6,1,3,1.6,4.9,1.2c0.9-0.2,1.6-0.9,2.4-1.2c1.6-0.7,3.1-0.2,4.7,0.4
		c2.4,0.9,4.4,1.3,7,1.3c3,0,5.8,0.1,8.6,1.4c2.3,1,3.4,3.4,5.6,4.6c3.6,1.9,7.7-2,11.3-2.6c2.2-0.4,4,0.1,6.2-0.9
		c3-1.3,5.2-3.7,8.5-2c1.5,0.7,2.4,1.4,4.2,1.6c2.6,0.2,4.4,1.3,6.9,1.8c1.2,0.2,2.6,0.2,3.8,0.7c0.8,0.3,1.4,1,2.3,1.3
		c2.1,0.6,4.3,0.2,6.4-0.3c2.4-0.6,5.2-2.7,7.6-2.8c1.1,0,2.2,0.5,3.3,0.6c1.7,0.1,3.4-0.5,5.1-0.1c2.3,0.5,4,1.4,6.3,1.3
		c2.7-0.1,5,1.1,7.7,1.4c2,0.2,3.1-0.7,5-1.5c2.5-1,5.2-1,7.8-1.8c2.6-0.8,5.1-1.6,7.8-1.8c2.5-0.2,4.9,0.3,7.3-0.4
		c1.5-0.4,3.1-1,4.2-2.2c0.3-0.4,0.6-0.9,0.8-1.3c0.7-1.5,1.1-2.7,2.2-4.1c1-1.4,1.8-2.6,2.2-4.3c0.3-1.5-0.3-1.8,1.4-2.5
		c1.4-0.6,3-0.4,4.4-0.9c3.4-1.2,6.4-4.6,7.4-8.1c0.7-2.3,1.7-5,1.9-7.4c0.1-0.9-0.1-1.7-0.4-2.6c-0.6-1.7,0-2.8,0.7-4.4
		C917.5,150.6,916.7,145.9,915.5,141.8z"/>
	<path class="st18" d="M825.4,213.1c0.8-4.9,2.6-10.3,2-15.3c-0.1-0.6-0.4-1.2-1-1.3c-0.1,0-0.2,0-0.2-0.1c-0.1,0-0.3,0-0.4,0
		c-0.9-0.7-2.3-1.1-3-1.4c-1.2-0.5-2.5-0.6-3.8-1c-1-0.3-1.6-1-2.5-1.3c-0.3-0.4-0.7-0.6-1.3-0.4l-0.2,0.1c-0.3,0.1-0.5,0.3-0.7,0.5
		c-1.1,0.1-1.6,1.6-1,2.3c0.5,6.1,0.1,12.6,0,18.8c-0.1,6.6-0.7,13.1-1.4,19.7c-1.3,11.8-2.8,23.8-2.9,35.8c0,0.1,0,0.1,0,0.2v0.8
		c0,0,0,0.1,0,0.1c-0.4,0.4-0.5,1-0.1,1.5c0.6,0.9,0.5,2,1.3,2.8c0.8,0.8,2,1.1,3,1.3c1.3,0.3,2.7,0.1,4,0.3
		c1.5,0.2,2.8,0.3,4.3,0.2c0.9,0,1.3-0.8,1.3-1.5c0.1-0.3,0.1-0.7-0.1-1c-1.3-2.9-0.7-7.3-0.7-10.4c0-3.4,0-6.9,0-10.3
		c0-3.5,0.4-6.9,0.4-10.5c-0.1-3.7,0-7.5,0.3-11.2C823.1,225.5,824.3,219.2,825.4,213.1z"/>
</g>
<g id="tree2">
	<path class="st18" d="M928.7,203.6c0.9-6,3-12.5,2.3-18.6c-0.1-0.7-0.4-1.5-1.1-1.6c-0.1,0-0.2,0-0.3-0.1c-0.2,0-0.3,0-0.5,0
		c-1-0.8-2.6-1.3-3.5-1.7c-1.4-0.6-2.9-0.8-4.3-1.3c-1.1-0.4-1.8-1.2-2.8-1.6c-0.3-0.5-0.8-0.7-1.5-0.5l-0.2,0.1
		c-0.3,0.1-0.6,0.4-0.8,0.6c-1.2,0.1-1.8,1.9-1.1,2.8c0.5,7.4,0.1,15.4,0,22.8c-0.2,8-0.8,16-1.6,23.9c-1.5,14.4-3.2,28.9-3.3,43.4
		c0,0.1,0,0.1,0,0.2v1c0,0,0,0.1,0,0.1c-0.4,0.5-0.6,1.2-0.1,1.9c0.7,1.1,0.6,2.4,1.5,3.4c0.9,0.9,2.3,1.3,3.4,1.6
		c1.5,0.3,3.1,0.1,4.6,0.4c1.7,0.2,3.2,0.3,4.9,0.3c1,0,1.5-0.9,1.5-1.8c0.1-0.4,0.1-0.8-0.1-1.2c-1.5-3.5-0.8-8.8-0.8-12.6
		c0-4.2,0-8.3,0-12.5c0-4.3,0.5-8.4,0.4-12.7c-0.1-4.5,0-9.1,0.4-13.6C926.2,218.7,927.6,211.1,928.7,203.6z"/>
	<path class="st19" d="M1021.6,164.6c-0.5-1.5-0.9-2.7-0.9-4.4c0-2.2,1.2-3.8,1.5-5.9c0.4-2.2-0.2-4.2-0.9-6.3
		c-0.9-3-0.7-5.8-1.3-8.8c-1.1-5.8-5.5-9.4-8.1-14.2c-1.3-2.4-1.5-5.3-2.5-7.8c-1.1-2.6-2.9-4.9-3.8-7.6c-1.2-3.5,0.8-6.8,1.5-10.3
		c0.5-2.8,0.4-5.6,0-8.4c-0.8-5.4-1.4-11.8-4.4-16.4c-1.6-2.4-3.6-4.3-5.2-6.7c-2.4-3.7-2.2-7.2-2.7-11.4c-0.7-6-4.4-10.9-7.7-15.4
		c-3.2-4.3-6.9-8.2-11.7-10.5c-2.6-1.3-5.3-1.7-8.1-2.1c-2.8-0.5-7.1-0.7-8.5-3.8c-2.3-4.9-4.7-8.9-8.9-12.2
		c-4.9-3.9-10.1-7.1-15.1-10.8c-3.9-2.9-7.1-4.5-11.4-5.1c0,0,0-0.1-0.1-0.1c-0.5-0.9-1.3-1-2-0.6c-1-0.3-2.2-0.3-3.2-0.2
		c-1.6,0-3.2-0.1-4.8,0.3c-1.6,0.4-2.9,1.7-4.4,2c-1.7,0.4-3.7-0.8-5.6-0.7c-1.4,0-2.7,0.4-4,1c-1.5,0.8-2.5,2-3,3.4
		c-1.7-0.2-3.7,0.6-4.9,1.8C890.3,4.6,890,7.1,889,8c-1.2,1.1-3.5,1.4-5,2.4c-1.3,1-2.6,2-3.4,3.6c-0.4,0.7-0.5,1.6-0.7,2.4
		c-0.4,1.7,0.5,0.6-0.6,1.5c-3.7,2.9-8.4,3.6-11.2,8c-0.8,1.3-1.4,2.6-2.4,3.8c-0.7,0.9-1.6,1.6-2.3,2.6c-0.9,1.5-1.5,3.2-1,5
		c0.5,2,2.2,3.7,3.5,5.1c1.1,1.2,2.1,1.7,1.3,3.1c-0.7,1.4-3.5,2.9-4.6,3.8c-3.6,3-7.6,6.8-10.2,10.8c-1.6,2.4-2.2,5.4-3.8,7.7
		c-1.2,1.8-2.8,3.2-3.9,5.2c-0.7,1.4-1.1,2.9-0.7,4.5c0.1,0.4,0.3,0.9,0.4,1.2c-0.7,0.4-2.1,1.4-2.5,1.7c-1.5,1.3-2.8,2.8-3.6,4.7
		c-0.6,1.5-0.6,2.9-1.3,4.3c-0.8,1.6-1.9,2.8-3,4.2c-3,3.9-6.8,8.8-7.3,14.1c-0.2,1.8,0.5,3.5,0.4,5.3c-0.1,1.9-0.4,3.4,0.5,5.2
		c1.9,4,6.2,4.9,8.8,8.1c2.3,2.8,2.3,7.7,1.6,11.1c-0.6,2.7-1.9,5.1-1.6,7.9c0.2,1.9,1.2,3.4,2.3,4.9c2,2.8,2.5,5.3,2.9,8.7
		c0.6,4.6,2.4,7.4,6.6,8.3c2,0.5,4.5,0,6.4,0.6c2,0.6,3.8,3.8,5.5,5.1c4.1,3.4,9.2,7.3,14.2,8.8c2.4,0.7,4.5,0.5,6.9,0.3
		c3.5-0.3,5.1,2.5,7.8,4c4.4,2.5,9.7,0.7,14.3-0.3c5.6-1.1,10.4-4,16.2-3.9c3.5,0,5.4,1.6,8.1,3.8c2.3,1.9,4.8,3.3,7.4,4.5
		c5.3,2.4,10.2,1.7,15.8,1.6c2.7-0.1,5.1-1.9,7.7-1.9c2.7,0,5.2,2.1,7.9,2.3c2.5,0.2,4.8-0.5,7.1-1.2c1.5-0.5,3.1-1.1,4.8-1.1
		c1.5,0,3,0.6,4.6,0.6c2.6,0,5.3-1,7.9-1.6c3.7-0.9,7-0.9,10.7-1c7.8-0.2,21.1-4.9,21.4-15.5
		C1023.1,169.7,1022.4,167.1,1021.6,164.6z"/>
</g>
<g id="cloud1">
	<path class="st20" d="M242.8,21c-5-10.4-14.4-16.1-26.5-15.5c-3.6,0.2-2.3,0.3-3.7-3.2c-1-2.6-2.6-5.2-4.4-7.3
		c-3.3-3.9-7.8-5.8-12.7-7.4c-12.4-4.2-22.5,1.1-33.2,6.3c-5.1-3.1-9.3-6.2-15-8.6c-5.2-2.1-10.6-3.8-16.1-4.6
		c-4.4-0.7-9-0.7-13.2,1.2c-5.4,2.5-9,6.7-14.9,8.6c-4.6,1.5-9.4,2.8-13.7,5.2c-5,2.8-7.7,7.2-12.2,10.4C72.4,9.4,66.6,5.8,61,6.5
		c-5,0.6-9.8,4.1-13.8,6.7c-2.1,1.3-3.5,2.9-5.2,4.7c-3,3.1-5.8,4.3-9.9,5.7c-3.8,1.3-7.6,2.4-10.3,5.5c-2.4,2.8-2.3,4.6-1.2,7.9
		c0.8,2.4,1.4,2.9-0.9,4c-2.2,1.1-5.5,1.4-7.9,2.3C2.1,46.9-3.9,54.9-5.6,64.7C-6.3,68.8-6,73-4.1,76.8c2.1,4.4,4.9,5.6,8.3,8.6
		c3.6,3.1,3.9,9.1,7.3,12.8c3.3,3.6,8,6.1,13.1,6.1c5.5,0,9.8-3,15-4.1c5-1,10.8,1.4,16.1,0.6c5.4-0.7,10.3-2.9,15-5.3
		c3.1-1.6,5.8-3.5,9.2-4.2c4.5-0.9,9.2,0.7,13.7,1.5c12.9,2.2,25.6-1.6,38.3-3.5c7.2-1.1,14.4-2.6,21.6-2c5.7,0.4,10.9,0.6,16.1-2
		c1.9-1,3.4-2.5,5.2-3.6c4.4-2.5,6-1.2,9.9-0.8c6,0.7,12.2-0.3,18.1-1.3c4.9-0.9,8.8-2,12.9-4.8c2.1-1.5,4.1-3.1,6-4.7
		c3.5-3,5.5-3.5,10.2-3.2c9.7,0.6,17.4-4.5,19.4-13.7C254.1,41.6,247.8,31.3,242.8,21z"/>
</g>
</svg>
